<svg xmlns="http://www.w3.org/2000/svg" viewBox="0 0 89.095 31.908"><defs><style>.a{fill:#8a8f9d;}</style></defs><g transform="translate(0)"><g transform="translate(0)"><path class="a" d="M38.3,24A5.249,5.249,0,0,0,33,29.228a5.139,5.139,0,0,0,5.095,5.3A5.266,5.266,0,0,0,43.256,29.3,5.069,5.069,0,0,0,38.3,24Zm-.134,9.05a3.636,3.636,0,0,1-3.62-3.754A3.836,3.836,0,0,1,38.3,25.541,3.622,3.622,0,0,1,41.848,29.3,3.778,3.778,0,0,1,38.161,33.049Z" transform="translate(-10.871 -7.911)"/><path class="a" d="M13.9,29.3a5.266,5.266,0,0,0,5.162,5.229,5.1,5.1,0,0,0,5.095-5.3A5.291,5.291,0,0,0,18.86,24,5.112,5.112,0,0,0,13.9,29.3Zm1.408,0a3.582,3.582,0,0,1,3.553-3.754A3.747,3.747,0,0,1,22.614,29.3a3.636,3.636,0,0,1-3.62,3.754A3.824,3.824,0,0,1,15.307,29.3Z" transform="translate(-4.575 -7.911)"/><g transform="translate(0)"><path class="a" d="M41.789,30.243a1.146,1.146,0,0,1-.871.469,1,1,0,0,1-1.006-1.073,1.07,1.07,0,0,1,.536-.938l-.2-.134c-.134,0-.268-.067-.4-.067A2.193,2.193,0,0,0,37.7,30.578a2.049,2.049,0,0,0,2.011,2.145,2.089,2.089,0,0,0,2.078-2.078c.067-.067,0-.2,0-.4Z" transform="translate(-12.421 -9.395)"/><path class="a" d="M31.1,39.988l2.547-1.475L31.1,36.1Z" transform="translate(-10.246 -11.901)"/><path class="a" d="M22.389,30.243a1.146,1.146,0,0,1-.871.469,1,1,0,0,1-1.006-1.073,1.07,1.07,0,0,1,.536-.938l-.2-.134c-.134,0-.268-.067-.4-.067A2.193,2.193,0,0,0,18.3,30.578a2.049,2.049,0,0,0,2.011,2.145,2.089,2.089,0,0,0,2.078-2.078q.1-.1,0-.4Z" transform="translate(-6.026 -9.395)"/><path class="a" d="M39.346,13.742C37.737,6.972,30.3,0,20.911,0h-.134C11.392,0,3.952,6.972,2.343,13.742.332,14.01-.07,14.546,0,17.027c.134,2.614-.134,4.625,2.011,4.625h.268c2.346,4.424-.871,4.424,5.43,7.709l-1.006-.4c-.6-.2-1.743.335-1.676,1.207v.8c0,.4,1.542.8,2.547.871h.2l13.072.067,13.072-.067h.2c1.006-.067,2.547-.469,2.547-.871v-.8c.067-.871-1.14-1.408-1.676-1.207l-1.073.4c6.368-3.218,3.084-3.218,5.43-7.709h.268c2.145.067,1.877-2.011,2.011-4.625C41.826,14.613,41.357,14.077,39.346,13.742Zm-12,14.077a6.973,6.973,0,0,1-3.687-1.073l-2.815,2.882L18.1,26.747a6.973,6.973,0,0,1-3.687,1.073,6.612,6.612,0,0,1-6.636-6.435,6.394,6.394,0,0,1,6.368-6.5,6.849,6.849,0,0,1,6.77,5.162h0a6.74,6.74,0,0,1,6.77-5.162,6.436,6.436,0,0,1,6.368,6.5A6.716,6.716,0,0,1,27.347,27.819Zm10.39-10.927c-.2,4.491-.134,8.714-4.826,11.195a3.367,3.367,0,0,0,.335-.871s4.894-6.3-.2-11.4a5.216,5.216,0,0,0,1.006-4.357s-.536,1.676-1.408,1.944c0,0,.4-5.3-4.826-6.368,0,0,2.748,6.636-6.972,7.039-9.72-.469-6.972-7.039-6.972-7.039-5.229,1.073-4.826,6.368-4.826,6.368-.871-.268-1.408-1.944-1.408-1.944A5.216,5.216,0,0,0,8.644,15.82c-5.095,5.028-.2,11.4-.2,11.4a3.367,3.367,0,0,0,.335.871c-4.759-2.413-4.625-6.636-4.826-11.195-.268-6.9,7.24-15.016,16.893-15.016S38.072,9.988,37.737,16.893Z" transform="translate(0.01)"/></g></g><g transform="translate(46.855 2.145)"><g transform="translate(35.939 3.017)"><path class="a" d="M125.1,7.968a.307.307,0,0,1,.335-.268h0a.307.307,0,0,1,.268.335v2.011a.307.307,0,0,1-.335.268h0a.307.307,0,0,1-.268-.335Z" transform="translate(-124.027 -7.7)"/><path class="a" d="M125.846,9.2a.307.307,0,0,1,.268.335h0a.307.307,0,0,1-.335.268h-2.011a.307.307,0,0,1-.268-.335h0a.307.307,0,0,1,.335-.268Z" transform="translate(-123.5 -8.194)"/></g><path class="a" d="M78.811,14.73l-2.48-.067.2-8.245A3.2,3.2,0,0,0,73.382,3.2,3.309,3.309,0,0,0,70.1,6.351l-.2,11.463a3.142,3.142,0,0,0,.8,2.346,3.187,3.187,0,0,0,2.413,1.006l5.564.067a2.814,2.814,0,0,0,2.346-.938,3.265,3.265,0,0,0,.8-2.279A2.994,2.994,0,0,0,78.811,14.73Z" transform="translate(-69.887 -3.2)"/><path class="a" d="M102.41,3.734a3.233,3.233,0,0,0-3.285,3.218l-.067,5.765a2.117,2.117,0,0,1-2.145,2.145,2.163,2.163,0,0,1-2.078-2.212L94.9,6.885A3.166,3.166,0,0,0,91.818,3.6a3.233,3.233,0,0,0-3.285,3.218l-.134,6.3a8.549,8.549,0,1,0,17.094.335l.134-6.3A3.4,3.4,0,0,0,102.41,3.734Z" transform="translate(-75.99 -3.332)"/><path class="a" d="M111.417,34.452l5.162-4.894a1.7,1.7,0,0,1,2.547.2,1.545,1.545,0,0,1,.134,1.609l-.134.268-1.408,2.145a2.969,2.969,0,0,0,2.882,1.81,3.279,3.279,0,0,0,3.218-3.084l.2-11.6a3.046,3.046,0,0,0-1.475-2.748l-.067-.067a3.259,3.259,0,0,0-3.955.6l-.067.067L106.926,29.96a3.1,3.1,0,0,0-.067,4.424A3.322,3.322,0,0,0,111.417,34.452Z" transform="translate(-81.78 -7.973)"/><path class="a" d="M.3,2.882a1.1,1.1,0,0,0,.793.284,1.092,1.092,0,0,0,.761-.255.884.884,0,0,0,.282-.69V2.2H1.814v.018a.6.6,0,0,1-.193.472.764.764,0,0,1-.528.172Q.327,2.866.327,2V1.2A1,1,0,0,1,.522.506.734.734,0,0,1,1.088.3.766.766,0,0,1,1.619.47a.605.605,0,0,1,.195.475V.958H2.14V.945a.942.942,0,0,0-.13-.5A.858.858,0,0,0,1.641.116,1.25,1.25,0,0,0,1.088,0,1.1,1.1,0,0,0,.3.284a1.2,1.2,0,0,0-.3.9v.8A1.2,1.2,0,0,0,.3,2.882ZM3.864,1.773l.7,1.357h.376l-.73-1.388A.849.849,0,0,0,4.7,1.455.838.838,0,0,0,4.872.909.825.825,0,0,0,4.623.266.977.977,0,0,0,3.941.04H2.794V3.13h.327V1.773Zm-.743-.282V.336h.793a.681.681,0,0,1,.468.146.549.549,0,0,1,.163.432.547.547,0,0,1-.166.428.669.669,0,0,1-.466.15ZM5.8.336H7.353V.04H5.476V3.13H7.353v-.3H5.8V1.706H7.129v-.3H5.8ZM9.516,2.387l.26.743h.345L9,.04H8.723L7.6,3.13h.345l.26-.743Zm-.094-.278H8.3L8.857.5ZM11.929.336V.04H9.842v.3h.882V3.13h.322V.336Zm.43-.3V3.13h.327V.04Zm.752,0,1,3.09h.269L15.391.04h-.34l-.8,2.561L13.452.04Zm3,.3h1.549V.04H15.78V3.13h1.876v-.3H16.107V1.706h1.325v-.3H16.107Z" transform="translate(1.146 21.859) rotate(0.931)"/></g></g></svg>