<svg xmlns="http://www.w3.org/2000/svg" xmlns:xlink="http://www.w3.org/1999/xlink" viewBox="0 0 78.557 42.601"><defs><style>.a{fill:#fff;}.b,.c,.d{fill:none;stroke-width:0.7px;}.b,.c{stroke:#8b8b9a;}.c{stroke-linejoin:round;}.d{stroke:#ebebeb;}.e{filter:url(#a);}</style><filter id="a" x="0" y="0" width="78.557" height="42.601" filterUnits="userSpaceOnUse"><feOffset dy="3" input="SourceAlpha"/><feGaussianBlur stdDeviation="3" result="b"/><feFlood flood-opacity="0.161"/><feComposite operator="in" in2="b"/><feComposite in="SourceGraphic"/></filter></defs><g transform="translate(9 6)"><g class="e" transform="matrix(1, 0, 0, 1, -9, -6)"><rect class="a" width="60.557" height="24.601" rx="7" transform="translate(9 6)"/></g><g transform="translate(12.423 7.791)"><g transform="translate(0 0)"><path class="b" d="M755.539,38.593h7.89l1.181,7.965H754.238Z" transform="translate(-754.238 -35.727)"/><path class="b" d="M757.314,40.606s-1-4.869,2.184-4.869c3.093,0,1.9,4.869,1.9,4.869" transform="translate(-754.228 -35.737)"/></g></g><g transform="translate(38.423 7.791)"><g transform="translate(0 0)"><path class="c" d="M11.035,1.083a3.326,3.326,0,0,0-4.7,0l-.328.328-.334-.334a3.318,3.318,0,0,0-4.7,0,3.318,3.318,0,0,0,0,4.7l4.782,4.782a.345.345,0,0,0,.242.1.342.342,0,0,0,.242-.1l4.791-4.772a3.329,3.329,0,0,0,0-4.7ZM10.545,5.3" transform="translate(0.001 -0.1)"/></g></g><line class="d" y1="11" transform="translate(30.923 7.291)"/></g></svg>