<svg xmlns="http://www.w3.org/2000/svg" viewBox="0 0 624.989 270.671"><defs><style>.a{fill:#a8d135;}</style></defs><g transform="translate(0 -8.926)"><g transform="matrix(0.974, 0.225, -0.225, 0.974, 52.084, 0)"><g transform="matrix(0.848, -0.53, 0.53, 0.848, 0, 24.795)"><path class="a" d="M5.126,1.053A8.042,8.042,0,0,0,2.7,2.842c.947,1.579,2.632,2.527,3.264,4.316A11,11,0,0,1,3.863,5.58c-.632-.632-1.369-1.263-2.105-2l-.737.737C-.769,6.527-.138,8.738,2.389,10c4.422,2.421,8.948,4.737,12.738,8.106.316.316.526.526,1.053-.105L6.705,0A3.75,3.75,0,0,0,5.126,1.053Z" transform="translate(12.503 4.211)"/><path class="a" d="M16.786,0C-5.637,12-3.532,38.425,11,51.269c.632-.105.737-1.263,1.79-.737-.316.526-.526,1.053-.737,1.474,10,8.211,24,7.9,34.741,2.632l-.316-.632c-.105-.211-.316-.421-.421-.632-8.106,3.685-8.527,3.685-12.317,1.053-3.053,2.421-6.316,2.421-9.685.737a39.664,39.664,0,0,1-6-4,4.417,4.417,0,0,1-2.105-4.422c-2.948.526-4.632-1.263-6-3.369a35.71,35.71,0,0,1-3.579-8.527,5.151,5.151,0,0,1,.211-4.316A4.68,4.68,0,0,1,5,25.582a32.357,32.357,0,0,1,2.842-8.317c.947-1.895,2-3.474,4.422-3.9C10.575,10.212,12.154,8,14.47,6.211c1.369-1.053,2.842-2.105,4.316-3.264A12.087,12.087,0,0,1,16.786,0Z" transform="translate(0 0)"/><path class="a" d="M3.355,15.477A6.709,6.709,0,0,0,5.565,18.32c1.263,1.053,3.474.947,4.106-.105a52.657,52.657,0,0,1,4.737-6.106c2.421-2.737,4.316-6,8-7.475,1.158-.421.842-1.579.526-2.421A3.456,3.456,0,0,0,18.83.107a12.936,12.936,0,0,1-2.842.211A37.619,37.619,0,0,0,1.354,4.424,2.048,2.048,0,0,0,.091,6.95,21.518,21.518,0,0,0,1.46,11.372c1.053-.105,1.79-1.053,3.053-.737-.737,1.053-1.895,1.053-2.737,1.579A7.783,7.783,0,0,0,2.828,14.53c4.843-1.895,8.633-5.474,12.844-8.106A50.33,50.33,0,0,1,3.355,15.477Z" transform="translate(7.01 26.738)"/><path class="a" d="M15.691,1.28C15.06.438,14.428-.3,13.375.122A11.681,11.681,0,0,0,8.322,3.386,90.815,90.815,0,0,0,.848,13.6c-1.474,2.316-1.053,3.579,1.474,4.737,1.474-4.632,5.685-7.58,7.79-11.9.737.632.316.947.211,1.158A25.171,25.171,0,0,1,7.48,12.123,31.174,31.174,0,0,0,3.8,17.6a1.794,1.794,0,0,0,.737,2.527C5.9,20.756,7.164,21.7,8.638,22.23A6.8,6.8,0,0,0,15.27,21.6c.421-.316.947-.632.737-1.263-.947-3.474-.421-7.159-.737-10.738C14.955,6.965,14.639,4.123,15.691,1.28Z" transform="translate(17.097 32.302)"/><path class="a" d="M16.641,8.674a4.781,4.781,0,0,1-2.948.316A109.012,109.012,0,0,0,2.008,8.148c-.421,0-.947-.211-1.158.316C.324,10.148-.518,11.727.429,13.517c.421.947,1.053,1.369,2.316.842a43.532,43.532,0,0,1,18.318-3.685c.526,0,1.263.211,1.474-.632S22.01,8.99,21.379,8.779C17.694,7.727,14.009,6.253,10.22,5.516,8.535,5.2,6.956,4.674,5.377,4.358c0-.105.105-.316.105-.421a107.242,107.242,0,0,1,14.949,3.79c-4.316-2.737-8.422-5.9-13.265-7.58A2.5,2.5,0,0,0,4.219,1.2a20.353,20.353,0,0,0-2.842,5.9C6.535,7.516,11.588,7.832,16.641,8.674Z" transform="translate(5.725 15.013)"/><path class="a" d="M1.369,0A5.516,5.516,0,0,0,0,4.211Q.316,11,.947,17.791c.211,2.527,1.263,3.685,3.158,3.9,3.158.421,5.58-1.263,8.106-2.948C8.317,12.528,4.843,6.316,1.369,0Z" transform="translate(33.104 33.583)"/><path class="a" d="M4.737.289A20.473,20.473,0,0,1,0,1.763C1.053.289,3.369-.448,4.737.289Z" transform="translate(13.839 35.188)"/></g></g><path class="a" d="M86.214,124.1c-2.334,3.89-3.7,7.974-5.445,11.669a38.121,38.121,0,0,1-5.056,8.557c-.583.778-1.167,1.361-2.139.778-.778-.389-.583-1.361-.389-2.139a15.243,15.243,0,0,1,.972-2.723,64.778,64.778,0,0,1,7-10.891,7.458,7.458,0,0,0,1.556-3.306c-3.89,5.056-7.2,9.335-11.474,13.225a14.685,14.685,0,0,1-2.723,2.139c-.972.583-1.945,1.167-2.917.389s-.194-1.75,0-2.723a1.4,1.4,0,0,0,.194-1.556c-1.945,2.723-3.89,5.251-5.834,7.779-.972,1.167-1.945,2.334-2.917,3.306-.778.778-1.75,1.556-3.112.778-1.167-.778-.972-2.139-.583-3.112.583-2.139,2.139-3.89,3.306-5.834a17.791,17.791,0,0,0,1.75-3.306c-4.084,3.7-7.974,7.39-12.252,10.7a13.043,13.043,0,0,1-2.723,1.75c-1.361.583-2.723,2.334-4.084.778-1.167-1.361.194-2.723.972-3.89,1.361-1.75,2.917-3.5,4.862-5.834-4.862,2.528-9.14,4.473-13.808,5.445a35.551,35.551,0,0,1-10.113.778c-1.945-.195-3.112-.972-2.334-3.306a27.481,27.481,0,0,1-7.974.389,2.523,2.523,0,0,1-2.723-1.75c-.389-1.167.778-1.945,1.556-2.528a32.381,32.381,0,0,1,4.473-2.334c-.583-.972-1.945-1.167-1.556-2.528-1.556.194-2.917,1.167-3.89,0-.972-1.75.972-2.528,1.945-4.084a66.656,66.656,0,0,1-6.418,2.334c-1.361.583-3.112.972-3.89-.583-.972-1.556.583-2.723,1.556-3.7,2.334-2.139,5.251-3.112,7.974-4.862H8.229c-1.361,0-2.917.389-3.5-1.361-.583-1.556.389-2.917,1.361-3.89,3.7-3.89,8.557-6.418,13.419-8.752,1.75-.778,3.306-1.556,4.084-3.7,1.167-2.723,4.279-3.306,7-4.084.778-.194,1.945,0,2.334-.972,1.75-3.306,4.862-3.7,7.779-4.279,2.917-.389,6.029-.389,8.946-.583a2.467,2.467,0,0,1,1.167.194c5.056,2.528,9.335.389,13.808-2.139H61.516c-7.585,0-14.975.195-22.365-1.167-.972-.194-2.139,0-2.334-1.167-.194-1.556,1.167-1.556,2.139-1.945,5.445-1.945,11.085-1.361,16.531-.194A101.618,101.618,0,0,0,72.407,92.4c3.5,0,6.807-.972,10.307-1.945,1.167-.194,2.528,0,3.7-1.167a18.727,18.727,0,0,1-8.752-2.917c-1.167-.778-2.528-1.556-2.139-3.112.389-1.361,1.75-1.167,2.917-1.361,8.557-.389,16.531-3.112,24.7-5.251a35.433,35.433,0,0,1,20.615,1.167,5.783,5.783,0,0,0,5.834-.778c3.112-2.139,6.807-2.917,10.113-4.279.972-.389,1.945-.583,2.528.389.583,1.361-.778,1.556-1.556,1.945A24.9,24.9,0,0,1,136,77.228c-7.2,2.334-11.474,7.2-14,14.2-1.75,4.668-3.5,9.335-5.056,14A30.4,30.4,0,0,1,106.635,120.6c-.972.778-2.139,2.139-3.5.972-1.361-.972-.194-2.334,0-3.5.778-2.723,1.75-5.251,2.334-8.168-3.306,2.917-6.612,5.834-9.918,8.557-1.945,1.556-3.89,2.917-5.834,4.279C88.548,124.681,87.381,125.264,86.214,124.1ZM119.47,79.951a33.188,33.188,0,0,0-16.336-.195c-5.64,1.167-11.085,3.306-16.92,4.084-2.723.389-5.64-.389-8.557,1.167,5.445,3.89,11.474,3.89,17.5,2.917C103.523,86.174,111.108,81.7,119.47,79.951ZM85.826,97.065c-6.418,1.361-12.641,3.5-19.253,3.306a1.732,1.732,0,0,0-1.556.972c-3.7,2.917-8.557,3.5-12.058,6.612-9.14.583-17.309,3.7-25.477,7.585-2.917,1.361-6.029,2.334-8.946,4.473H19.7c9.529-2.139,18.475-6.807,28-9.335,6.223-1.75,12.252-3.7,18.281-5.834C72.6,102.7,79.8,101.149,85.826,97.065ZM43.235,127.792c-11.085,5.834-22.754,8.752-33.45,14.391a9.678,9.678,0,0,0,5.056.583c6.807-.583,13.225-2.723,19.642-5.056.972-.389,2.139-.583,2.528-1.556C38.178,133.238,40.707,130.9,43.235,127.792Zm3.89,8.363c-8.557,3.112-16.725,6.029-24.893,8.946,11.085.778,20.031-3.7,28.783-10.5-1.556,0-2.917,1.167-3.89-.194.583-2.139.583-2.334,2.528-4.084a108.472,108.472,0,0,1,21.393-14.975,9,9,0,0,0,3.112-2.917c-7.779,4.279-16.725,6.807-22.559,14.391-1.556,2.139-4.084,3.7-6.029,5.445-1.167.972-2.334,1.945-3.7,3.112C43.624,135.96,45.18,134.015,47.124,136.155Zm41.424-13.419c8.752-7.39,18.67-13.613,23.921-24.5C104.5,106.4,92.632,110.484,88.548,122.736Zm-3.112-11.28A194.3,194.3,0,0,0,119.081,87.73C106.829,94.147,94.966,101.149,85.437,111.456ZM63.461,100.371c-3.7-2.139-22.754,1.75-28.2,5.445C43.04,107.566,54.709,105.427,63.461,100.371ZM61.9,129.154c9.335-6.029,16.92-14,23.726-22.754C75.907,112.039,68.517,120.208,61.9,129.154ZM5.312,122.541a14.843,14.843,0,0,0,9.529-1.556c2.139-1.167,3.7-3.5,6.223-4.473v-.778c-.778-1.75.389-2.528,1.556-3.306a26.713,26.713,0,0,1,3.89-2.528C18.731,112.817,11.535,116.124,5.312,122.541Zm32.478-6.223c-9.14,4.862-17.7,9.529-25.088,16.142,8.363-3.112,15.753-7.779,24.115-10.891C34.872,119.43,37.4,118.457,37.789,116.318Zm67.484,3.89c7.974-7.585,9.918-17.5,13.808-26.449C113.441,101.732,107.413,109.511,105.273,120.208Zm-48.036-6.223c-2.723.389-3.89,2.723-5.834,3.89-7.974,4.667-16.336,8.363-24.7,12.447-.972.583-2.334.778-2.723,2.334C36.039,128.376,48.1,124.292,57.237,113.984Zm5.251,1.556c9.14-3.5,16.92-9.14,24.115-15.558C78.046,104.26,69.295,108.539,62.488,115.54ZM96.327,90.647C86.6,92.4,76.88,94.147,67.545,96.87c-.972.194-1.361.778-1.75,2.139C76.685,98.037,86.6,94.536,96.327,90.647ZM85.242,117.679A70.331,70.331,0,0,0,67.35,139.85C74.74,133.627,80.38,126.042,85.242,117.679ZM40.707,149.185a6.216,6.216,0,0,1,1.361-.195c7-4.473,12.058-10.7,17.7-16.531.972-.972-.194-1.361-.778-2.139C52.959,136.349,46.541,141.989,40.707,149.185Zm29.561-23.532c-6.418,6.418-11.085,14-15.558,21.976C61.516,141.6,65.6,133.432,70.267,125.653Zm-45.119-5.445c-7.2,4.862-16.531,5.445-22.948,11.474A56.8,56.8,0,0,0,25.148,120.208Zm14-1.361c7.39-1.361,13.808-5.056,20.031-8.946C51.986,111.651,44.791,113.4,39.151,118.846Zm2.528,14c6.612-4.084,16.531-14.391,16.725-16.92A152.573,152.573,0,0,0,41.679,132.849ZM72.6,127.792a79.488,79.488,0,0,1,17.7-16.531c-2.139.778-4.084,1.75-6.029,2.528-.972.389-2.334.194-3.112,1.361C78.63,119.624,74.935,123.125,72.6,127.792Zm27.616-32.478a25.512,25.512,0,0,0-14,8.363C91.854,102.51,95.938,98.62,100.217,95.314ZM49.458,133.043c4.862-1.361,12.836-7.2,15.753-12.058C59.765,125.264,54.515,128.57,49.458,133.043Zm-14.2-30.922c5.64.389,10.7-2.139,15.947-3.306C45.763,99.593,40.123,99.009,35.261,102.121Zm22.754-8.946A39.48,39.48,0,0,0,41.484,92.2C46.93,93.564,52.375,93.564,58.015,93.175ZM24.565,108.15c3.306-.389,5.834,1.167,8.557-.583-.972-1.167-.194-2.139.389-3.7A18.939,18.939,0,0,0,24.565,108.15Zm-1.75,21.976c-3.7.778-5.445,3.112-7.39,5.251a8.032,8.032,0,0,0,6.612-1.361C20.675,132.654,21.648,131.487,22.815,130.126Zm1.361-16.142c.194.194.194.583.389.778l11.669-5.251A25.134,25.134,0,0,0,24.176,113.984ZM111.3,87.341c-3.89.972-7.585,1.945-10.5,4.667C104.5,90.647,107.8,88.9,111.3,87.341Z" transform="translate(-0.142 16.643)"/><path class="a" d="M213.4,218.61c0-2.139,1.167-2.139,2.334-2.334a38.415,38.415,0,0,0,11.28-3.7c5.251-2.917,9.335-6.612,11.085-12.641.778-3.112,2.723-5.64,4.473-8.168,3.306-4.668,7.585-7.39,13.419-6.612,8.752,1.361,14.2-3.112,18.281-10.307a70.661,70.661,0,0,0,6.223-15.364c1.75-7,4.084-13.613,9.53-18.864,1.361-1.167,2.528-2.528,4.278-3.112,3.112-1.167,4.473-3.5,5.445-6.418a46.111,46.111,0,0,1,9.14-16.531,30.424,30.424,0,0,1,22.948-10.5h5.251a22.92,22.92,0,0,0,15.753-5.056c3.306-2.723,6.418-5.445,9.724-7.974A30.409,30.409,0,0,1,376.373,85c6.612-1.361,14.975,3.89,11.474,13.03-.583,1.75-1.167,3.5-1.945,5.251a20.7,20.7,0,0,0,.194,17.309l2.917,7c2.528,4.862,2.139,9.529-.584,14.2a31.578,31.578,0,0,1-11.863,11.863c-1.556.778-3.112,1.75-4.668,2.334-9.335,3.306-12.252,10.5-12.641,19.448-.389,5.834-.389,11.863-1.75,17.7-3.89,17.114-19.059,21.782-30.533,21a132.613,132.613,0,0,1-15.364-1.945c-5.251-.972-9.724.389-12.836,4.862-1.945,2.528-3.889,4.862-5.64,7.585-6.418,9.53-15.558,12.058-26.255,11.28a34.111,34.111,0,0,1-18.476-6.807c-5.64-4.084-11.863-6.612-18.086-9.53-3.7-1.556-7.585-1.361-11.474-1.361A26.6,26.6,0,0,1,213.4,218.61ZM324.447,112.036c-5.251,3.5-7.779,8.752-10.5,14a8.292,8.292,0,0,0-1.167,3.5c.583,8.363-1.556,16.142-3.5,24.115-2.139,8.168-6.029,15.753-8.168,23.921a64.977,64.977,0,0,1-8.168,17.892c-.389.778-1.361,1.361-1.167,2.528,3.89-1.556,14.586-9.14,19.448-14.2a349.637,349.637,0,0,0,27.227-31.7c.389-.583.972-.972.778-1.945-.972-5.64,1.361-10.5,4.084-14.975a7.834,7.834,0,0,0,1.361-3.89,92.78,92.78,0,0,1,1.167-14.78,60.2,60.2,0,0,1,2.139-8.946c-13.03-.389-16.531,9.529-21,18.67,0-3.7,1.945-6.612,3.5-9.529a24.284,24.284,0,0,1,6.807-8.168c-16.92-3.7-26.838,6.029-31.894,16.531a70.358,70.358,0,0,0-3.89,10.7,6.053,6.053,0,0,1-3.89,4.473,23.048,23.048,0,0,0-11.863,13.419,77.277,77.277,0,0,0-2.917,9.529,57.333,57.333,0,0,1-7,15.753c-4.279,6.612-9.724,10.7-17.892,9.529-6.612-.972-10.891,1.945-14,7.39a16.072,16.072,0,0,0-1.75,3.112c-2.334,5.834-5.057,11.28-11.474,14.586,6.223.778,9.724-1.556,11.474-7,1.556,2.528-1.167,3.89-1.167,6.029,4.279-.194,8.557-.389,12.641-.583,10.5-.583,20.615-2.723,29.95-8.168a18.784,18.784,0,0,0,7.39-7.2,88.246,88.246,0,0,0,7.2-14.975c3.5-9.529,4.862-19.642,5.057-29.755,0-1.75,1.167-3.7.194-5.64-4.667.778-7.39,3.89-9.335,7.779-3.306,6.418-4.473,13.419-6.612,20.031a2.352,2.352,0,0,1-1.945,2.334c2.334-8.557,3.7-17.114,7.974-24.5,1.556-2.917,3.695-5.64,6.807-6.418,4.862-1.361,7-4.862,8.557-9.14.583-2.139,1.361-4.279,2.139-6.418a40.608,40.608,0,0,1,7.779-14.2C319.974,113.592,321.724,112.036,324.447,112.036Zm30.728,61.844c.195-.972.389-1.945.583-3.112,1.167-7.779,4.668-14,12.252-17.114,2.723-1.167,5.251-2.528,7.779-3.89,4.668-2.723,7.974-6.612,10.7-11.863-3.112,0-5.835.195-8.363,0a53.348,53.348,0,0,1-7.585-1.75,20.382,20.382,0,0,1-7-3.7,5.693,5.693,0,0,1,4.084,1.167,28.238,28.238,0,0,0,12.641,3.112c2.334.195,5.251.778,6.612-1.167,1.362-2.334-.389-5.056-1.75-7.39,0-.194-.389-.194-.583-.194-1.167.389-2.528.778-3.89,1.167-6.029,1.75-12.058,1.556-18.281,1.945-4.278.195-7.585,1.167-10.113,5.056-4.084,6.223-8.752,12.058-13.225,17.892-5.056,6.612-9.918,13.225-15.947,19.642C334.366,172.519,344.478,175.825,355.175,173.88Zm-.195,7.973a64.006,64.006,0,0,1-12.446-1.75,125.489,125.489,0,0,1-12.058-4.084c-4.667-1.945-7.973-1.167-11.474,2.723a96.2,96.2,0,0,1-20.031,17.7c-.583.389-1.556.778-1.75,1.75a28.074,28.074,0,0,1,13.419,4.862c2.139,1.361,4.084,2.723,6.029,4.084,9.529,6.029,19.059,4.862,28.394-.389,3.7-2.139,6.029-5.64,7.779-9.918-4.279-.583-8.168-.778-11.474-3.306a41.1,41.1,0,0,0,12.058,1.75A44.508,44.508,0,0,0,354.98,181.854Zm2.334-51.537c9.335-1.361,18.476-.583,27.422-4.278-5.446-9.141-4.668-18.281-.389-27.422a20.333,20.333,0,0,0,.778-3.306c.389-3.112-1.167-5.056-4.473-6.223-2.917-.972-4.278.389-5.445,2.723-1.75,3.89-3.695,7.779-5.64,11.474-.973,1.75-1.75,3.7-3.7,5.056,3.306-6.029,6.029-12.447,8.946-19.059-15.947,4.473-20.615,18.67-27.227,30.728-3.7,6.612-1.167,14.975-1.945,22.365,9.724-12.641,19.448-25.088,29.172-37.729.194.194.583.389.778.583C370.344,113.981,363.732,121.76,357.314,130.317Zm-97.628,83.431c2.723,1.75,4.279,5.251,7,6.223,4.084,1.556,7.779,3.89,11.863,5.64,5.251,2.334,6.029,1.945,9.53-2.528,4.278-5.251,7.585-11.474,13.808-14.586-1.556-3.306-1.556-4.084-.972-5.056-3.889-3.306-7.779-3.89-12.446-.778C279.717,208.692,270.382,212.97,259.686,213.748Zm-30.144,2.334c4.862,2.139,9.335,4.084,13.613,6.223s8.362,4.862,12.836,6.807c6.223,2.723,12.836,2.917,20.226,1.361A66.536,66.536,0,0,1,262.8,218.61a13.353,13.353,0,0,0-11.669-4.668C244.322,214.721,237.126,214.721,229.542,216.082Zm81.292-80.709c-.778,1.945-1.167,4.668-2.723,6.029-3.7,3.306-3.306,7.39-3.5,11.669-.194,3.5-.389,6.807-.389,10.7C307.722,156.961,311.417,141.4,310.834,135.374Zm44.147,39.868c-7,1.556-13.614.194-20.42.389a47.771,47.771,0,0,0,20.031,4.473C355.369,178.548,355.175,177.186,354.98,175.242Zm-38.9,33.645c-5.834-4.279-10.891-8.168-17.5-8.557,2.723,1.945,5.251,3.7,7,6.807-1.556,0-1.75-1.361-3.112-1.556.778,1.167.583,2.723,2.139,2.528C308.111,207.33,311.612,208.5,316.085,208.886Zm31.505-91.016c2.723-5.056,5.64-10.113,8.363-15.169C348.174,104.84,348.174,111.453,347.59,117.871Zm-7.584,31.505c3.7-2.139,4.278-7.974,3.7-12.252C341.366,139.847,339.811,144.9,340.006,149.376Zm-58.149,78.958c-5.251-.972-8.557-4.862-13.808-6.612a79.258,79.258,0,0,0,8.168,7C278.161,230.279,279.717,230.085,281.856,228.334Z" transform="translate(201.341 28.315)"/><path class="a" d="M233.951,229.591c2.139,5.445,4.862,10.307,6.223,15.753-3.7-4.278-5.251-9.918-7.974-14.78-10.113,1.556-17.114-3.89-22.949-11.085-4.667-5.834-9.529-10.307-17.309-11.28a55.943,55.943,0,0,1-9.918-1.945c-3.112-.778-6.223-1.945-8.168-4.667a10.4,10.4,0,0,1,7-16.336c2.528-.389,5.251-.389,7.779-.583a4.86,4.86,0,0,0,3.5-.972c-.778-2.528-2.917-4.084-5.056-5.64a43.564,43.564,0,0,0-10.7-4.667,21.876,21.876,0,0,1-10.307-6.807,12.093,12.093,0,0,1-2.723-9.529,8.23,8.23,0,0,1,8.168-7.39,28.252,28.252,0,0,0,5.445-.778c-1.167-2.139-3.112-2.917-4.862-3.89a29.784,29.784,0,0,1-7.779-6.029c-2.723-3.112-2.917-6.223-.194-9.335.972-1.167.583-2.139,0-3.112A10.789,10.789,0,0,1,161.8,120.1c.194-3.112,2.528-5.056,5.834-4.668.778.194,1.75.389,2.528.583,1.167.195,2.334.972,3.112-.389.778-1.167-.195-2.334-.972-3.112-2.334-2.723-4.667-5.445-5.251-9.335a9.419,9.419,0,0,1,5.445-10.5c3.306-1.361,6.612-2.139,10.307-1.167,8.557,2.723,15.364,7.2,18.281,16.336,1.167,3.89,1.75,7.974,3.7,11.863,1.361-.583,2.528-1.167,3.7-1.556,3.7-1.556,5.834-.778,7.585,2.917,2.917,6.612,3.7,13.419.778,20.42-1.167,2.723-1.556,5.251.389,7.779,1.167,1.556,2.528,1.945,3.7.194a39.405,39.405,0,0,0,2.528-3.5,28.793,28.793,0,0,1,4.279-5.64c4.862-4.667,10.5-3.89,14.391,1.75,3.7,5.64,4.473,20.226-1.75,25.866a66.367,66.367,0,0,0-7.2,7.585c-1.361,1.556-3.5,3.306-1.945,5.834,1.361,2.139,4.667,2.528,7.585.972,1.945-.972,3.7-2.139,5.64-2.917,3.306-1.167,6.612-.194,8.363,2.917,2.334,4.084,2.917,8.168.583,12.447a26.98,26.98,0,0,1-6.807,7.974,14,14,0,0,0-5.056,13.03,8.721,8.721,0,0,0,.194,2.139C241.536,225.507,240.953,226.479,233.951,229.591ZM213.337,121.266c-2.528,9.335-5.251,17.892-7.2,26.644-1.556,6.807-1.75,13.808,1.167,20.615,3.112,7,6.029,13.808,9.14,20.809.389.778.389,1.945,1.556,2.334.778-6.418,3.306-12.252,5.64-17.892a176.118,176.118,0,0,0,8.751-23.921,35.151,35.151,0,0,0,1.556-9.918c-3.306.583-4.862,1.945-7.2,5.251-1.556,2.334-2.723,4.862-4.667,6.612-2.723,2.528-5.251,2.334-7.585-.194-2.723-2.917-3.112-6.418-.972-10.891C216.643,134.491,215.865,128.268,213.337,121.266Zm14,97.628c-4.473-10.5-8.946-20.809-13.419-31.117-1.556-3.7-3.112-6.418-7.779-7.39-6.612-1.361-12.836-4.473-19.059-6.612-.972-.389-1.75-1.167-3.112-.778,3.7,1.75,6.807,3.7,8.946,6.807,2.528,3.5,1.75,5.64-2.528,6.612-.778.194-1.361.389-2.528.778,3.7,6.418,6.612,13.224,12.447,17.7A113.438,113.438,0,0,0,221.7,217.728C223.255,218.505,225.005,219.478,227.339,218.894Zm8.168-78.764c-.583,7-2.528,13.225-4.667,19.448-3.112,9.918-8.363,19.253-10.891,29.366-.778,3.306-.972,6.418.584,9.724,2.528,5.445,4.667,11.085,7.2,16.531.389.778.389,1.945,1.556,2.528.194-4.279,2.334-7.974,4.084-11.669s4.473-7.2,4.667-11.474c.194-3.112.972-6.223.778-9.529a12.5,12.5,0,0,1-4.278.778c-6.223-.389-8.752-5.057-5.445-10.307a37.771,37.771,0,0,1,6.418-7.2,17.22,17.22,0,0,0,6.223-16.142C241.147,147.715,240.175,143.242,235.507,140.131Zm-24.893,40.257c-3.7-8.946-7.779-17.309-11.085-26.06a4.206,4.206,0,0,0-2.139-2.334c-10.7-6.418-21.392-12.836-30.144-21.782-2.528,2.528-2.528,4.473.194,7.2,2.917,2.917,6.807,4.668,9.918,7.2s3.306,4.279.389,7.39c2.528,5.445,5.056,10.891,7.779,16.531a12.218,12.218,0,0,0,7.585,6.612c4.278,1.361,8.557,2.917,12.836,4.473A9.121,9.121,0,0,0,210.614,180.388Zm-13.03-29.755c-7.2-18.864-15.753-36.951-24.31-55.037-4.084,2.917-4.862,6.418-2.139,10.891,1.167,1.75,2.528,3.5,3.7,5.251a5.355,5.355,0,0,1,0,5.64c-1.167,1.945-2.917,1.945-4.862,1.361a14.718,14.718,0,0,0-2.917-.195c-2.334-.194-3.112,1.167-2.334,3.112a26.532,26.532,0,0,0,3.89,7.779C176.969,138.38,187.277,144.215,197.584,150.633Zm8.363-28c-3.7.583-4.862-1.556-5.64-4.279-1.167-4.278-1.75-8.752-3.5-12.836a13.572,13.572,0,0,0-5.445-6.612c-.389,7.585-1.361,14.975-.972,22.365a31.234,31.234,0,0,0,1.945,10.307c3.5,8.557,7,17.114,10.5,25.477.195.583.195,1.361.972,1.361C204.585,146.548,206.53,134.88,205.947,122.628ZM231.034,227.84c-.972-2.334-1.945-4.473-2.723-6.418a1.932,1.932,0,0,0-1.556-1.167c-4.278-.583-7.974-2.723-11.669-4.862-8.946-5.056-17.5-10.7-26.06-16.142a76.084,76.084,0,0,0-11.863-6.223c-1.945-.778-2.723-.194-2.917,1.75a7.879,7.879,0,0,0,4.084,7.779,31.474,31.474,0,0,0,11.085,3.112c8.363.778,15.753,3.5,20.615,10.7a28.272,28.272,0,0,0,6.807,6.807C220.921,226.479,225.2,228.813,231.034,227.84ZM246.4,181.749a12.726,12.726,0,0,1-2.723,8.363,135.682,135.682,0,0,0-11.669,22.365c-1.556,3.89-2.528,7.974-.389,12.058,1.167,2.334,2.917,2.917,4.862,1.167a4.154,4.154,0,0,0,1.556-3.306,23.749,23.749,0,0,0-.194-5.251c-1.167-6.612.972-12.058,6.223-16.336a24.645,24.645,0,0,0,6.223-7.974C252.621,188.556,250.871,183.111,246.4,181.749Zm-74.291-29.366a5.507,5.507,0,0,0-5.445,3.5c-.778,2.139-1.361,4.667.583,6.223,4.473,3.89,10.113,6.029,15.558,8.168A82.281,82.281,0,0,1,172.107,152.383Zm2.917-57.566c2.917,7,6.029,13.419,9.724,20.615.583-6.223.778-11.863-.972-17.114-1.361-4.473-2.139-5.056-6.807-4.084A4.347,4.347,0,0,0,175.025,94.817Zm19.253,105.991c-2.334-4.279-5.445-8.168-7.2-12.836a1.233,1.233,0,0,0-1.167-.972c-3.306-.583-8.168,1.556-9.918,4.473C182.609,193.612,188.249,197.5,194.278,200.808ZM184.165,94.817c3.112,7.2,2.723,14.586,2.139,21.976-.195,2.334,1.361,4.278,2.528,6.223a41.935,41.935,0,0,1,0-8.557c.389-4.279.778-8.752.778-13.03C189.8,96.762,189.416,96.568,184.165,94.817Zm27.81,24.893c-3.7.778-4.667,1.361-4.862,3.112V136.63C209.253,131.185,211.392,125.934,211.975,119.71ZM182.8,167.747c.195-.195.389-.195.583-.389-1.945-4.473-3.89-8.751-5.834-13.225-1.167-2.528-1.167-2.528-4.084-1.75C176.191,157.828,178.914,163.079,182.8,167.747Zm62.428,13.613c-1.945,1.361-4.473,1.361-5.056,3.7a67.406,67.406,0,0,0-.778,9.529C242.314,190.306,244.648,186.611,245.231,181.36Zm-62.816-9.335c-4.084-1.945-8.168-3.89-12.252-6.029C173.274,170.08,177.942,170.858,182.415,172.025Z" transform="translate(152.59 34.254)"/><path class="a" d="M107.455,191.376c-1.75.583-1.75,1.945-2.139,3.112-.972,2.528-1.945,5.056-5.445,4.862-.972,0-1.167.972-1.556,1.556-1.167,1.75-2.528,3.5-4.278,4.278-4.279,1.556-7.779,4.084-11.474,6.418A9.231,9.231,0,0,1,70.7,210.24a4.174,4.174,0,0,0-2.917-.778c-6.029,0-10.307-2.917-12.836-8.557-.389-1.167-.972-1.361-2.139-1.556a14.847,14.847,0,0,1-11.669-7.779c-1.361-2.334-3.7-4.084-4.862-6.612-1.556-3.112-2.723-6.029-.972-9.529a4.273,4.273,0,0,0-.194-2.723c-1.167-4.084-1.361-8.168.972-12.058,1.167-1.945.583-4.278,1.167-6.612.778-3.112,1.945-6.029,4.862-7.779,1.75-.972,1.945-2.723,2.334-4.473.583-5.251,3.5-8.752,7.974-11.28a9.859,9.859,0,0,0,4.862-4.862c1.75-3.112,3.89-5.64,7.779-6.029,1.556-.195,1.75-1.556,2.139-2.528,1.556-3.306,3.5-6.807,7-7.39a26.656,26.656,0,0,0,11.474-5.056,3.606,3.606,0,0,1,1.361-.389c3.7-.389,7.39-.583,10.307-3.5,1.167-1.167,3.112-.778,4.667,0a2.756,2.756,0,0,0,3.7-.583c2.334-2.139,5.056-2.334,7.974-1.361a4.6,4.6,0,0,0,3.89-.389,13.491,13.491,0,0,1,13.03,0,3.5,3.5,0,0,0,3.112.389,5.745,5.745,0,0,1,6.029,1.361,9.58,9.58,0,0,0,6.223,2.723,7.246,7.246,0,0,1,5.251,2.917,4.627,4.627,0,0,0,2.528,1.75,3.6,3.6,0,0,0,1.361.389c2.917,1.167,4.279,3.5,5.834,6.223,1.361,2.334,5.64,1.75,6.612,4.668.778,2.917,2.917,5.251,4.279,7.779a4.862,4.862,0,0,1,.778,2.723c-.778,3.89.778,7.585.389,11.474-.389,4.473-3.5,7.974-4.084,12.447-.194,1.75-2.723,2.723-4.279,3.7a3.949,3.949,0,0,0-2.139,3.306c-.195,3.112-1.75,5.056-4.862,6.223-2.917,1.167-5.64,3.112-8.752,3.695-2.139.389-4.279.389-6.029-.972-1.945-1.361-4.084.195-6.418-.778a40.445,40.445,0,0,0,6.807,14.975c2.528,3.7,5.445,7,7.779,10.891,2.528,4.473,6.223,7.974,9.529,11.669,3.112,3.5,2.917,4.084-.583,7.2-3.89,3.306-7.974,6.418-12.058,9.335-5.056,3.5-7.585,3.306-12.058-.973-8.752-8.168-17.114-16.725-24.31-26.449A15.477,15.477,0,0,1,107.455,191.376Zm31.7-50.953c.389,5.251-1.167,9.724-2.917,14.2a21.377,21.377,0,0,0-1.361,8.557c.195,2.723,1.556,3.89,4.278,3.5,1.167-.194,2.528-.778,3.306,0,2.139,2.334,4.473,1.361,7,.972s4.084-2.723,6.612-2.917,3.7-1.556,4.084-3.89a8.228,8.228,0,0,1,4.084-6.029c1.75-1.167,3.7-2.723,2.723-5.251a3.891,3.891,0,0,1,1.167-4.473,6.35,6.35,0,0,0,1.945-6.223c-.778-2.723-.583-5.251-.583-7.974,0-4.473-2.528-8.751-5.056-11.669-2.334-2.917-6.029-4.862-8.946-7.974-1.945-2.334-5.64-2.917-7.779-5.64a3.1,3.1,0,0,0-2.334-.778c-5.251-.194-9.335-5.056-14.975-3.7l-.194-.195c-4.473-3.112-8.752-1.945-12.836.778a4.484,4.484,0,0,1-4.668.389,5.893,5.893,0,0,0-6.612.583c-1.361.972-2.723,1.556-4.279.583-2.528-1.361-4.667-.583-6.612,1.361-.972.972-1.75,1.75-3.306,1.556a13.192,13.192,0,0,0-9.529,3.5c-.778.778-1.556,1.75-2.723,1.556-5.834-.194-8.946,3.5-11.085,8.363a4.3,4.3,0,0,1-3.112,2.917c-3.112.389-5.056,2.528-6.612,4.862a10.347,10.347,0,0,1-3.89,4.279c-5.64,2.528-8.363,7-9.14,13.03a4.6,4.6,0,0,1-2.139,3.7c-2.528,1.75-3.5,4.473-4.279,7.2a31.13,31.13,0,0,1-2.334,7.2,11.733,11.733,0,0,0-.194,10.5c.389.778.972,1.361.389,2.528-1.556,2.917-.194,5.64.972,8.363,1.361,2.917,3.89,4.667,6.029,7,.972-.778,1.167-2.723,3.112-1.75-1.556,4.667-.389,6.807,4.667,7.585a11.089,11.089,0,0,0,2.528.194,1.872,1.872,0,0,1,1.945,1.361,12.08,12.08,0,0,0,11.474,8.557,4.947,4.947,0,0,1,3.306.778c5.251,3.89,8.557,3.7,13.419-.583a8.017,8.017,0,0,1,3.7-2.139c3.89-.583,6.223-2.917,7.974-6.223.389-.972.972-1.945,1.945-1.75,2.917.389,3.306-1.75,4.084-3.7.583-1.556.972-3.112,2.723-3.5-2.917-4.279-6.807-5.056-11.085-4.667a13.827,13.827,0,0,1-7.39-1.167c-2.917-1.361-5.834-2.528-8.751-3.89-2.334,3.306-5.445,5.251-9.529,4.862.194-.583,0-.778.194-.972.195-.389.583-.583.778-.778,4.279-1.556,6.223-4.667,7-8.946.389-1.556,1.167-2.723,2.917-2.528,1.945.194,3.112-.778,4.084-2.334.778-1.361,1.361-2.723,2.139-4.084a5.11,5.11,0,0,1,7-2.139c-.583,1.556-1.945,1.361-3.112,1.556a2.476,2.476,0,0,0-2.139,1.75,16.78,16.78,0,0,1-4.473,7.585c2.528,1.167,4.862,2.139,7.2,3.112,4.667,1.75,8.363-1.556,7.585-6.418a42.118,42.118,0,0,0-.778-4.862c-.778-2.139.389-3.5,1.945-3.306,3.7.389,5.445-1.556,7.2-4.084a4.246,4.246,0,0,1,.972-.583c4.862-2.139,5.834-4.473,4.279-9.724a6.4,6.4,0,0,1,1.75-6.612c1.361-1.556,3.306-2.723,5.251-1.945,2.917,1.167,4.473-.389,6.029-2.139,2.723-3.112,8.946-5.056,13.03-3.7.583.195,1.167.583.972,1.167-.194.389-.778.583-.972.778,2.723,3.306,7.585,2.139,10.5,4.862A16.028,16.028,0,0,1,139.155,140.423Zm20.615,69.429a44.233,44.233,0,0,0-5.64-6.612,37.333,37.333,0,0,1-2.723-2.917c-4.862-7.39-9.724-14.78-14.391-22.17-5.445-8.752-6.807-17.7-1.75-27.033a18.331,18.331,0,0,0,2.139-10.113,5.215,5.215,0,0,0-5.834-4.279c.389,5.056-1.556,9.724-3.112,14.391a18.97,18.97,0,0,0,1.167,15.558c1.361,2.528,2.528,5.057,3.7,7.585.389.972,1.361,1.945-.194,3.306-2.139-3.5-4.084-6.807-6.029-10.307a18.79,18.79,0,0,1-1.361-16.142c.778-1.945,1.556-4.084,2.139-6.029.778-2.723,2.139-5.251,1.945-8.363-3.112.389-3.5,3.7-5.834,5.056-2.528,1.361-5.251-.583-7.585,1.167,3.306,11.28,1.75,23.532,7,34.423-5.056-4.084-4.084-10.113-5.445-15.364a112.658,112.658,0,0,1-3.112-16.142,5.493,5.493,0,0,0-.194,4.279c.778,4.473-1.945,9.335-6.029,9.918-1.556.194-1.945,1.361-2.528,2.528,1.167,1.167,2.139,2.334,3.112,3.5.972,1.361,1.75,3.112.583,4.278-1.361,1.361-2.723-.195-3.89-.972s-2.139-1.75-3.112-2.528c-1.167-.778-1.945-2.139-3.306-2.528-.972,2.917.972,5.251.972,7.779,0,2.334,1.167,3.112,2.723,4.279a70.023,70.023,0,0,1,15.169,14.2c.389.389,1.167.972.389,1.945-6.029-5.834-11.28-12.252-19.059-16.142-2.528,3.7-5.834,3.7-9.529,2.139-1.75-.778-3.5-1.361-5.056-2.139-1.361-.583-2.917-1.361-4.473-.972a6.331,6.331,0,0,0-.778,2.723c1.75.583,3.5,1.167,5.251,1.945,4.084,1.75,7.974,3.112,12.641,2.917,3.306-.195,6.223,1.361,8.751,3.7a93.326,93.326,0,0,1,11.28,11.863,165.933,165.933,0,0,0,19.448,21c4.667,4.279,6.029,4.279,10.7-.194-3.306-3.7-7.2-6.612-9.724-10.891,4.473,2.528,7.39,6.807,11.085,10.113a37.2,37.2,0,0,0,6.418-4.862c-2.528-4.279-6.029-7.779-8.752-12.058a50.156,50.156,0,0,1,10.113,11.085c.972-.778,1.945-1.361,2.723-1.945C159.381,210.435,159.381,210.24,159.77,209.851Zm-51.731-41.035c-1.167-3.89-3.306-5.445-5.251-4.084A23.418,23.418,0,0,0,108.039,168.816Z" transform="translate(32.099 39.602)"/><path class="a" d="M142.509,136.666c.389-4.279.584-8.752,1.361-12.836a18.471,18.471,0,0,1,2.528-6.418c3.112-4.667,6.807-6.612,12.252-5.056,8.946,2.528,18.087,5.056,25.477,11.085,4.084,3.306,5.445,7.585,3.695,12.836-1.945,5.834-6.029,10.5-8.946,15.558-.583.972-1.361,1.945-1.945,2.917a13.559,13.559,0,0,0,7.585,2.917c6.418.194,12.252,7,13.808,14.78,1.556,8.557-.972,15.558-7.585,21.2a68.872,68.872,0,0,1-14.2,9.335c-5.64,2.917-11.474,2.528-17.309.584a88.268,88.268,0,0,1-15.169-6.807,193.51,193.51,0,0,0-27.227-12.836c-6.807-2.528-9.529-7.585-10.307-14.586-.778-8.946-.778-17.7,1.361-26.449,2.334-9.529,10.5-15.169,20.226-13.613a11.511,11.511,0,0,1,7.2,4.667A7.622,7.622,0,0,0,142.509,136.666Zm-11.085-2.528c-1.361-.389-2.334-1.945-3.7-1.167-5.251,2.917-7.974,7.39-9.14,13.225-.972,5.056-1.556,9.918-2.139,14.975-.583,6.418-.194,12.641,5.056,17.5.389.195.389.778-.194,1.167A4.813,4.813,0,0,1,118.2,177.9a16.981,16.981,0,0,1-3.7-7.779c-1.167-5.251-.195-10.5.778-15.558,1.361-7.2,2.917-14.391,6.223-21.2-5.056,1.75-8.168,5.056-9.335,10.113-2.139,8.168-1.945,16.725-1.556,25.088.389,5.64,2.334,10.5,8.363,12.641,11.669,4.279,22.365,10.5,33.645,15.558,5.056,2.334,9.918,4.862,15.753,2.917,3.306-.972,6.612-1.556,9.529-3.7a31.32,31.32,0,0,0,11.085-15.753c.389-.972.389-2.334,1.945-2.917-1.556,7-3.889,13.419-9.918,18.67,14.78-7.585,18.475-20.031,11.669-29.172-.583,7.2-.583,7.2-1.75,7.779-.778-2.334-.195-4.473-.195-6.612,0-4.668-1.556-6.612-6.223-7.2a12.128,12.128,0,0,1-6.612-2.139c-1.361-.972-2.917-1.361-4.084.583-2.139,3.89-4.279,7.974-4.862,12.447-.194,1.556-.778,3.5.972,4.279,1.945.973,3.5-.389,4.862-1.945.195-.389.583-.583.778-.972.583-1.361,2.528-2.528.972-4.084-1.75-1.75-2.139,1.167-3.7,1.361-1.361-.778-.972-1.75-.194-2.528a3.274,3.274,0,0,1,4.084-1.167c1.945.778,2.917,2.139,2.528,4.084a11.986,11.986,0,0,1-4.862,7.779c-4.279,2.723-8.557.972-9.335-4.084-.583-3.89.778-7.585,2.334-11.085,3.306-7.585,8.946-13.614,13.614-20.42,1.75-2.528,3.7-5.056,4.667-8.168,1.167-3.89.195-6.612-2.917-8.557-.973,3.5-1.945,7-4.473,9.724,0-3.89,2.528-7,3.306-10.891a43.625,43.625,0,0,0-11.474-5.251,3.631,3.631,0,0,0-4.473,1.556c-.778.972-.972,2.723-2.723,2.917-.583-2.723,1.75-3.89,3.306-6.029-4.279.583-4.668,4.473-7,6.418-1.167-1.75.195-2.723.778-3.7a40.758,40.758,0,0,1,2.723-3.306c-8.946-3.5-13.419-1.167-15.364,7.779-.389,2.139-.778,4.473-.972,6.612-.778,7.2-1.556,14.391-4.084,21.2a15.174,15.174,0,0,1-8.363,8.946c-3.5,1.361-7,.583-8.751-2.139-2.334-3.7-3.112-7.779-1.167-11.863a6.271,6.271,0,0,1,4.668-3.89,6.024,6.024,0,0,1,6.418,2.723,5.544,5.544,0,0,1,.194,6.807,4.085,4.085,0,0,1-3.5,1.945c-1.167-.195-2.139-.778-2.139-2.139a1.468,1.468,0,0,1,1.361-.778c1.167,0,2.334.195,2.528-1.361.195-1.361.195-2.528-.972-3.5a2.93,2.93,0,0,0-3.306-.583c-2.723,1.361-2.917,3.89-2.528,6.223.195,2.528.583,5.251,3.7,6.029a4.005,4.005,0,0,0,2.917-.583,11.376,11.376,0,0,0,5.64-5.64,38.762,38.762,0,0,0,3.112-13.614c-2.139.195-4.084-.389-6.029.195-1.361.389-1.945,0-1.361-1.361.583-1.167,0-1.75-.778-2.528-.972-.778-1.556,0-2.334.389a9.785,9.785,0,0,0-5.057,6.223C125.2,139.389,125.2,139.389,131.424,134.138Z" transform="translate(99.924 53.86)"/><path class="a" d="M175.111,113.018a39.491,39.491,0,0,1-5.056,18.67c-3.7,6.612-7.2,13.419-8.946,20.809-.389,1.167-.778,2.528-2.334,2.723s-2.139-1.167-2.723-2.139c-3.306-4.667-6.807-9.335-9.918-14-6.418-9.918-7.39-20.031-1.556-30.533,3.7-7,8.168-13.808,10.891-21.2A24.106,24.106,0,0,0,156.635,75.1c0-.583-.194-1.167-.194-1.75,0-.778-.195-1.945,1.167-1.945.972,0,1.167.972,1.167,1.75-.195,8.363,4.084,14.586,8.946,21C171.8,99.4,175.305,105.434,175.111,113.018Zm-5.445,10.307a23.323,23.323,0,0,0,0-21.782c-2.528-5.056-6.418-9.529-9.529-14.391C158.191,99.016,162.081,113.991,169.665,123.326Zm-12.058,27.033c.778-3.5,1.167-7,2.917-9.724,2.723-4.473,3.306-8.752,0-13.225-.972-1.361-.972-3.112-1.75-4.667-.389-.972-.195-2.528-1.556-3.306-1.75,5.445-1.167,11.085-1.556,16.531-1.75-3.89-1.361-7.974-1.556-12.641a55.581,55.581,0,0,0-6.807,9.141c-.583.972-.194,1.556.195,2.334A142.348,142.348,0,0,0,157.608,150.358Zm-1.167-44.73a77.723,77.723,0,0,0-10.113,11.085,12.628,12.628,0,0,0-.389,14.2C153.524,124.3,157.219,115.936,156.441,105.628ZM165,132.272c1.167-1.945,2.139-3.5,3.306-5.251a2.645,2.645,0,0,0,0-2.917c-3.306-5.64-6.807-11.085-8.751-17.5C157.414,112.24,159.942,124.1,165,132.272Zm-7.584-42.591c-3.306,8.363-8.557,15.753-11.474,24.31,3.112-3.89,7.2-6.418,10.307-10.113a3.39,3.39,0,0,0,1.167-2.334Z" transform="translate(132.667 15.664)"/><path class="a" d="M325.872,38.7c1.361,1.556.389,2.723.195,3.7-.973,3.5-1.751,7-1.167,10.7a9.624,9.624,0,0,0,3.889,6.223c11.669,7.974,14,15.947,8.362,28.783-2.917,6.612-6.418,13.225-7.2,20.615-.389,3.7-.583,7.585-.972,11.28a17,17,0,0,1-.389,3.112,1.42,1.42,0,0,1-1.361,1.167,1.63,1.63,0,0,1-1.556-1.167c-2.139-10.113-10.113-16.336-16.142-23.532a30.787,30.787,0,0,1-7.2-13.614c-1.75-7.39,1.362-13.225,6.029-18.67a50.687,50.687,0,0,1,4.667-4.473c4.862-4.473,8.557-9.529,9.529-16.336A11.608,11.608,0,0,1,325.872,38.7Zm-10.5,54.454a2.2,2.2,0,0,1-.972-2.723,74.491,74.491,0,0,1,3.7-14.391c1.361-3.112,1.945-12.252.778-15.753-1.945,2.723-4.473,4.667-6.612,7-7.974,7.974-9.141,16.92-2.917,26.255,4.862,7.2,11.28,13.225,16.531,20.226-1.167-12.836-3.7-25.282-5.834-38.7C317.509,81.485,316.731,87.32,315.37,93.154Zm8.557-34.034c-.195,0-.584.194-.778.194.973,9.529-1.75,19.642,4.862,28.394-1.556.194-1.75-1.556-3.306-1.556.778,5.834,1.75,11.669,2.334,17.5A87.706,87.706,0,0,1,332.1,91.209a55.882,55.882,0,0,0,3.5-7.779c2.334-7.39,1.361-13.808-4.862-19.059C328.594,62.815,326.261,61.065,323.927,59.12Z" transform="translate(284.903 -15.231)"/><path class="a" d="M308.062,75.594c-4.279,2.528-7.2,6.418-10.113,10.307-4.667,6.418-8.946,13.03-14.2,18.864-5.251,6.029-12.058,9.724-19.448,12.447-.778.389-1.75.583-2.334-.194a1.54,1.54,0,0,1,.194-2.139c8.751-10.307,15.364-21.976,25.282-31.311,5.64-5.251,12.835-7.974,20.031-10.5,2.139-.778,3.89-1.556,5.251-3.5,2.139-2.917,4.667-5.64,8.168-6.807.972-.389,1.75-.972,2.723,0v.778c-5.834,7.585-9.141,16.336-12.058,25.088-2.917,8.557-7.779,15.947-15.558,21-.972.583-1.945,1.75-3.111.778-1.361-.972-.195-2.139.194-3.112C298.728,97.376,302.228,85.9,308.062,75.594Zm11.085-8.752c-4.667,5.834-9.724,11.28-13.225,18.086-3.5,7.2-7,14.2-10.5,21.393a63.446,63.446,0,0,0,9.724-14.2c-.778,4.862-4.084,8.752-6.029,13.225a28.765,28.765,0,0,0,9.335-12.641C311.952,83.957,314.091,74.816,319.148,66.843Zm-17.5,10.5c-2.723,2.334-6.418,2.723-8.752,5.251-7.39,10.307-13.225,21.587-23.337,29.561A32.62,32.62,0,0,0,282.2,103.21C289.392,95.042,294.06,85.124,301.645,77.344Zm-33.062,32.478c10.113-6.612,15.559-17.309,22.56-26.644C281.225,89.986,276.363,101.071,268.583,109.822Z" transform="translate(246.897 6.997)"/><path class="a" d="M50.373,81.871c-7.39-4.473-14.391-.778-21.393,0-3.306.389-6.807.972-10.113,0a15.778,15.778,0,0,1-9.335-6.418c-3.112-4.279-5.056-9.141-7-14.2-.194-.778-.583-1.556.194-2.139s1.556,0,2.139.583c4.279,3.112,9.14,3.7,14.2,2.917C32.481,60.09,41.816,66.9,47.456,76.426,48.234,78.176,49.984,79.538,50.373,81.871ZM23.73,72.147c.389-.972-1.361-1.75,0-2.723,2.139.778,2.528,4.473,5.834,3.306,0-1.361-1.945-2.139-1.361-3.89a4.983,4.983,0,0,1,2.528,2.334c.778,1.167,1.556,2.334,3.112,2.528A63.5,63.5,0,0,1,45.9,76.62c-5.834-7-11.863-12.252-20.809-12.252-6.223,0-12.641,1.167-19.059-1.361,2.334,4.667,4.084,9.14,7.585,12.641a3.166,3.166,0,0,0,3.7.972c1.167-.389,2.528-.972,3.7-.195-.194,1.556-1.945.972-2.334,1.945,3.5,1.361,16.92.194,19.837-1.75-8.752-2.917-18.864-2.139-26.449-8.946C15.951,69.23,19.646,71.175,23.73,72.147Z" transform="translate(1.86 3.831)"/><path class="a" d="M11.6,134.046a9.263,9.263,0,0,1,9.335-8.946c4.473,0,7.974,2.917,7.779,6.807a10.365,10.365,0,0,1-9.918,9.918C14.906,142.02,11.6,138.325,11.6,134.046Zm7,4.278a32.981,32.981,0,0,1,1.945-2.723,1.469,1.469,0,0,0-.194-2.334,2.759,2.759,0,0,0-2.723-.778c-.972.389-.778,1.167-.778,1.945C17.045,135.8,17.045,137.158,18.6,138.325Z" transform="translate(10.684 66.399)"/><path class="a" d="M18,141.139c0-3.112,3.306-6.029,6.807-5.834,3.7.195,7,3.5,7,6.807,0,3.112-3.89,7.39-6.418,7.2C22.279,149.5,18,144.639,18,141.139Zm5.64-.194c-1.945,1.945-1.945,2.917.583,4.667C25.39,143.472,25.39,143.472,23.64,140.944Z" transform="translate(16.731 76.031)"/><path class="a" d="M85.762,84.4c3.306,0,6.807,3.5,6.807,6.612,0,2.917-2.723,5.251-6.223,5.251-2.917,0-5.445-3.306-5.445-7A4.5,4.5,0,0,1,85.762,84.4ZM84.4,91.012c.195.778,0,2.139,1.556,2.139,1.75,0,1.75-1.556,1.945-2.723.389-1.167-.194-1.945-1.556-1.945S84.4,89.456,84.4,91.012Z" transform="translate(76.157 27.946)"/><path class="a" d="M233.185,134.518a5.776,5.776,0,0,1-6.029,5.834c-3.112,0-5.445-3.306-5.251-7.2a5.745,5.745,0,0,1,5.834-5.057A6.056,6.056,0,0,1,233.185,134.518Zm-6.807-2.528c-2.139,2.334-1.75,4.667,1.167,5.64C227.74,135.685,228.129,133.934,226.378,131.99Z" transform="translate(209.366 69.233)"/><path class="a" d="M87.7,91.068a4.859,4.859,0,0,1,5.056-4.862c2.528,0,5.056,2.528,5.056,4.667a5.272,5.272,0,0,1-5.445,5.251C90.034,96.124,87.7,93.4,87.7,91.068Z" transform="translate(82.582 29.641)"/><path class="a" d="M221.74,135.6c2.723,0,4.862,1.75,4.862,4.279.194,2.723-2.528,5.056-6.029,5.056-2.723,0-4.473-1.945-4.473-5.056C216.294,137.545,218.628,135.6,221.74,135.6Zm-2.139,2.917c-1.556,1.361-.778,2.528-.195,3.5a1.456,1.456,0,0,0,2.334,0A5.622,5.622,0,0,0,219.6,138.517Z" transform="translate(203.892 76.319)"/><path class="a" d="M216.1,146.2c0-2.139,1.75-3.7,4.279-3.7,2.723,0,4.473,1.556,4.473,4.084,0,2.723-1.945,5.056-4.473,5.056C218.434,151.835,216.295,148.918,216.1,146.2Z" transform="translate(203.892 82.838)"/><path class="a" d="M170.7,88.168c0-2.528,1.945-4.668,4.084-4.668s4.667,2.917,4.667,5.056a4.381,4.381,0,0,1-8.751-.389Z" transform="translate(160.999 27.096)"/><path class="a" d="M215.2,131.279A4.194,4.194,0,0,1,219.478,127a4.537,4.537,0,0,1,4.668,4.279c0,2.334-1.75,4.279-3.889,4.084C217.339,135.557,215.2,133.807,215.2,131.279Z" transform="translate(203.042 68.194)"/><path class="a" d="M179.4,89.79c0-2.528,1.556-3.89,4.084-3.89a4.243,4.243,0,0,1,4.084,4.084c0,2.139-1.945,4.279-3.89,4.279A4.237,4.237,0,0,1,179.4,89.79Z" transform="translate(169.218 29.363)"/><path class="a" d="M255,80a3.434,3.434,0,0,1,3.89-3.7c2.528,0,3.889,1.75,3.889,4.084,0,2.528-1.75,3.7-3.889,3.89S255,82.337,255,80Z" transform="translate(240.644 20.285)"/><path class="a" d="M293.721,82.408c-1.945-.194-3.306-1.361-3.112-3.306,0-1.75.583-3.5,2.917-3.7,1.945-.194,3.5,1.75,3.5,3.89C296.832,81.241,295.86,82.408,293.721,82.408Z" transform="translate(274.269 19.436)"/><path class="a" d="M78.2,74.412c.389-1.945,1.361-3.112,3.112-3.112a3.071,3.071,0,0,1,3.306,2.917c.194,1.945-1.167,3.112-3.112,3.112C79.756,77.329,78.978,75.579,78.2,74.412Z" transform="translate(73.606 15.569)"/><path class="a" d="M210.7,130.423c.195-1.75.972-2.723,2.723-2.723a2.66,2.66,0,0,1,2.917,2.917,2.461,2.461,0,0,1-2.723,2.723C211.672,133.534,210.7,132.368,210.7,130.423Z" transform="translate(198.79 68.855)"/><path class="a" d="M80.64,61.528c0,2.139-.778,3.112-2.334,3.306A3.117,3.117,0,0,1,75,61.723,2.461,2.461,0,0,1,77.723,59C79.668,59.195,80.64,60.361,80.64,61.528Z" transform="translate(70.583 3.949)"/><path class="a" d="M175.9,84.228c.195-1.556.778-2.528,2.528-2.528a2.461,2.461,0,0,1,2.723,2.723,2.26,2.26,0,0,1-2.528,2.528C176.872,86.951,176.095,85.784,175.9,84.228Z" transform="translate(165.912 25.395)"/><path class="a" d="M195.4,105.434c.195-1.75,1.167-2.334,2.723-2.334a2.461,2.461,0,0,1,2.723,2.723c-.194,1.75-1.167,2.528-2.723,2.334C196.178,108.156,195.594,106.8,195.4,105.434Z" transform="translate(184.335 45.614)"/><path class="a" d="M223.6,138.945c0-1.361.584-1.945,1.75-1.945,1.361,0,2.334.583,2.334,2.139a1.89,1.89,0,0,1-1.945,2.139A2.32,2.32,0,0,1,223.6,138.945Z" transform="translate(210.978 77.642)"/><path class="a" d="M196.2,111.356a1.7,1.7,0,0,1,1.75-1.556,1.588,1.588,0,0,1,1.556,1.75c0,.972-.583,1.556-1.75,1.361C196.784,113.106,196.2,112.328,196.2,111.356Z" transform="translate(185.091 51.944)"/><path class="a" d="M264.689,136.512c-3.306,6.612-9.724,9.14-17.309,7.974-4.667-.778-9.335-1.75-12.835,2.723a30.709,30.709,0,0,0-4.862,8.946c-.195.583,0,1.167-.972,1.167-.194,0-.194,0-.194-.195-.583-6.807,6.418-14.586,13.03-14.78,2.917,0,5.834.583,8.752.583a15.064,15.064,0,0,0,12.447-5.251C263.134,137.29,263.523,136.318,264.689,136.512Z" transform="translate(215.591 77.157)"/><path class="a" d="M272.171,107.9a10.683,10.683,0,0,1-1.75,6.418C269.643,111.984,270.81,109.845,272.171,107.9Z" transform="translate(254.978 50.148)"/><path class="a" d="M40.451,38.316c-3.112,1.167-5.64,2.334-8.751,2.723C33.645,38.122,37.923,36.76,40.451,38.316Z" transform="translate(29.674 -16.208)"/><path class="a" d="M29.5,37.517c.778-2.334,1.167-2.528,4.279-2.917C33.2,36.35,32.417,37.128,29.5,37.517Z" transform="translate(27.596 -19.104)"/><path class="a" d="M46.753,50.8c.972,3.112-.194,5.64-1.75,8.168C44.224,56.051,45.78,53.523,46.753,50.8Z" transform="translate(42.043 -3.799)"/><path class="a" d="M54.988,49.2c2.334,1.556,2.334,2.723,0,4.279C54.015,52.117,54.4,50.756,54.988,49.2Z" transform="translate(51.116 -5.31)"/><path class="a" d="M66.712,135.575c-.778-.972-.389-1.361.195-1.945,1.167-1.167,1.361-2.723,1.556-4.279.389-2.917,2.334-5.445,2.723-8.363,0-.195.778-.389.972-.389s.583.583.583.778c0,.583-.195,1.361-.195,1.945.195,2.723-2.334,4.084-2.917,6.418C68.851,133.825,69.045,134.019,66.712,135.575Z" transform="translate(62.341 62.147)"/><path class="a" d="M73.8,118.427c1.556-1.556,3.7-1.945,5.056-3.7a.833.833,0,0,1,1.361.194c.194.194.389.778.194.972C80.023,118.232,76.134,119.594,73.8,118.427Z" transform="translate(69.449 56.347)"/><path class="a" d="M96.366,117.3c.972.583.972,1.167.778,1.75A3.333,3.333,0,0,1,95,122.162c-.583.194-1.167.194-1.361-.583-.389-1.361.583-2.334,1.361-3.306A8.233,8.233,0,0,1,96.366,117.3Z" transform="translate(88.113 59.029)"/><path class="a" d="M97.418,127.711a2.218,2.218,0,0,1,1.167-2.334c.778-.584,1.361-2.723,2.723-1.361,1.167,1.167-.583,2.139-1.361,3.112C99.363,127.906,98.78,128.684,97.418,127.711Z" transform="translate(91.728 64.954)"/><path class="a" d="M46.024,124.1c.389,2.334-.194,3.89-2.139,4.473a1.038,1.038,0,0,1-1.167-1.361C42.913,125.461,43.691,124.1,46.024,124.1Z" transform="translate(40.048 65.454)"/><path class="a" d="M97.465,128.354c.195,1.167-.778,1.361-1.556,1.556a3.5,3.5,0,0,1-3.112,0,.907.907,0,0,1-.194-1.361c.583-1.167,1.75-.583,2.528-.778C95.909,127.771,96.687,127.188,97.465,128.354Z" transform="translate(87.014 68.784)"/><path class="a" d="M99.329,128.9c-2.139,3.5-3.5,3.89-6.029,2.334C94.856,129.872,96.8,129.872,99.329,128.9Z" transform="translate(87.873 69.989)"/><path class="a" d="M50.6,150.752c.389-1.361,1.75-1.945,2.917-2.334a.974.974,0,0,1,1.167.972c0,1.556-1.361,2.139-2.723,2.528A1.421,1.421,0,0,1,50.6,150.752Z" transform="translate(47.53 88.394)"/><path class="a" d="M89.006,105.856c-1.361-.194-3.112.194-3.306-1.75,0-.972,1.167-1.167,1.945-.972C89.2,103.522,89.979,104.3,89.006,105.856Z" transform="translate(80.692 45.581)"/><path class="a" d="M45.7,126.751c.389-.972.583-2.139,1.75-2.139.972-.194,1.167.778,1.167,1.556-.195,1.167-.583,2.139-1.75,2.139C45.894,128.307,45.7,127.53,45.7,126.751Z" transform="translate(42.901 65.914)"/><path class="a" d="M88.057,105.206c.778,0,1.945,0,1.945,1.167,0,1.556-1.361,1.167-2.139,1.167-.972,0-1.945,0-1.75-1.361C86.112,105.011,87.279,105.206,88.057,105.206Z" transform="translate(81.058 47.592)"/><path class="a" d="M46.7,123.552c.389-.972.972-2.139,2.139-2.334.583-.194,1.361.389,1.167.972-.389,1.167-.778,2.139-2.139,2.528A1.031,1.031,0,0,1,46.7,123.552Z" transform="translate(43.846 62.696)"/><path class="a" d="M59.9,120.049c.389-1.945,2.139-2.139,3.306-2.723.195-.195.778.194.972.389a.733.733,0,0,1-.194,1.167C62.623,119.66,61.65,120.632,59.9,120.049Z" transform="translate(56.317 59.004)"/><path class="a" d="M80.516,139.6c4.279,8.557,10.5,15.947,15.947,23.532C92.963,162.354,79.738,142.906,80.516,139.6Z" transform="translate(75.763 80.098)"/><path class="a" d="M80,148.9c6.612,6.807,13.613,13.224,20.42,19.837A116.108,116.108,0,0,1,80,148.9Z" transform="translate(75.307 88.885)"/><path class="a" d="M86.2,142.2c2.917,1.945,2.917,5.445,4.862,7.779A12.57,12.57,0,0,1,86.2,142.2Z" transform="translate(81.165 82.555)"/><path class="a" d="M92.8,153.123c-1.945-1.556-2.917-3.7-3.7-6.223,1.556,1.945,2.917,3.695,4.473,5.64C93.379,152.734,92.99,152.929,92.8,153.123Z" transform="translate(83.905 86.995)"/><path class="a" d="M146.453,170.974c-3.112,1.167-5.64.195-8.168-1.361-4.279-2.917-6.223-9.335-4.473-15.558a10.941,10.941,0,0,1,1.361-3.5c4.279-7.2,8.752-14.586,13.225-21.782a2.858,2.858,0,0,1,1.167-.972c.778.583.389,1.167.195,1.556-3.89,6.807-7.585,13.808-11.28,20.809-2.139,3.89-3.112,8.168-1.75,12.641,1.361,4.667,3.889,6.612,8.751,7.2C145.48,170,146.064,170,146.453,170.974Z" transform="translate(125.541 68.95)"/><path class="a" d="M141.833,114.7c0,.972,0,1.361-.195,1.361-6.223,6.807-7.39,15.364-8.946,23.921a59.1,59.1,0,0,1-6.612,17.7c-.195.389-.389,1.167-1.361.973-.195-1.361.389-2.334.778-3.5a103.49,103.49,0,0,0,6.029-24.31c.778-5.834,2.917-11.28,7.974-14.975A25.973,25.973,0,0,0,141.833,114.7Z" transform="translate(117.52 56.573)"/><path class="a" d="M126.9,157.516c2.139-10.307,7.2-19.253,13.808-27.616C137.013,139.624,131.956,148.57,126.9,157.516Z" transform="translate(119.617 70.934)"/><path class="a" d="M127.2,144.614A66.86,66.86,0,0,1,137.507,127.5c.389.194.583.389.972.583-3.5,5.64-7,11.28-10.5,17.114A2.685,2.685,0,0,0,127.2,144.614Z" transform="translate(119.901 68.666)"/><path class="a" d="M133.847,154.679c-4.473-.389-15.169-5.446-15.947-7.779C123.734,149.234,129.18,151.179,133.847,154.679Z" transform="translate(111.114 86.995)"/><path class="a" d="M131.7,153.014c2.334-.195,4.278.583,6.418,2.528A10.713,10.713,0,0,1,131.7,153.014Z" transform="translate(124.152 92.744)"/></g></svg>