<svg xmlns="http://www.w3.org/2000/svg" width="249" height="332" viewBox="0 0 249 332">
  <defs>
    <linearGradient id="farmer-field-a" x1="50%" x2="50%" y1="0%" y2="79.21%">
      <stop offset="0%" stop-color="#FFAD82" stop-opacity="0"/>
      <stop offset="100%" stop-color="#FFAD82"/>
    </linearGradient>
  </defs>
  <g fill="none" fill-rule="evenodd">
    <g transform="translate(0 175)">
      <path fill="#7BCDF3" d="M126.158955,26 L142.422411,42.263456 L89.7493948,94.9364721 C85.2548092,99.4310577 77.9715165,99.434928 73.4794997,94.9429112 L73.4794997,94.9429112 C68.9884704,90.4518818 68.9922254,83.1667295 73.4859388,78.6730161 L126.158955,26 L126.158955,26 Z"/>
      <path fill="#FFC688" d="M20,65.1816233 L31.5,45.263039 L87.3573551,77.512298 C92.8584291,80.6883445 94.7442662,87.7207566 91.5679307,93.2223311 L91.5679307,93.2223311 C88.3922934,98.7226963 81.3586383,100.60705 75.8573551,97.4308823 L20,65.1816233 L20,65.1816233 Z"/>
      <circle cx="18.5" cy="48.5" r="18.5" fill="#FFC688"/>
      <g transform="translate(10)">
        <rect width="53" height="107" fill="#000" rx="8"/>
        <circle cx="27" cy="100" r="4" fill="#777"/>
        <rect width="45" height="82.293" x="4" y="10" fill="#FFF"/>
        <path fill="#43AF6D" d="M41.3585664,58.8366461 C34.8336384,58.8366461 29.1681024,62.5021396 26.3024384,67.8838864 C26.4365824,67.8869253 26.5697024,67.8940162 26.7046144,67.8940162 C33.2295424,67.8940162 38.8958464,64.2285227 41.7612544,58.846776 C41.6268544,58.843737 41.4937344,58.8366461 41.3585664,58.8366461 L41.3585664,58.8366461 Z M26.2904576,67.8836331 C24.6960896,60.2912955 18.0457216,54.5618409 10.0219136,54.3701331 C11.6157696,61.9632305 18.2663936,67.6919253 26.2904576,67.8836331 L26.2904576,67.8836331 Z"/>
        <path fill="#F9C623" d="M26.4615936,42.4684221 C26.8793856,41.4427727 26.8732416,40.3603961 26.5286656,39.4036299 L28.5487616,38.4438247 C28.8910336,38.9219545 29.3654016,39.3137273 29.9503616,39.5517792 C31.5995136,40.2228831 33.4806016,39.430474 34.1518336,37.7820909 C34.8230656,36.133961 34.0302336,34.2538571 32.3813376,33.5830065 C31.1963136,33.1008247 29.8937856,33.3771169 29.0041856,34.1809221 L27.7334016,33.2028831 C27.7956096,33.095 27.8537216,32.9838247 27.9018496,32.8653052 C28.4704256,31.4691558 27.7989376,29.876487 26.4022016,29.3079481 C25.0052096,28.7396623 23.4116096,29.4107662 22.8430336,30.8071688 C22.2744576,32.2035714 22.9459456,33.7962403 24.3429376,34.364526 C25.3374976,34.7692143 26.4301056,34.5430649 27.1830016,33.8765195 L28.3954176,34.9264805 C28.3152896,35.0619675 28.2410496,35.2022662 28.1798656,35.3524416 C27.8890496,36.0668506 27.8739456,36.8243117 28.0836096,37.5085844 L26.0960256,38.5299286 C25.6367616,37.8183052 24.9627136,37.2350779 24.1184256,36.8914221 C21.9321856,36.0020195 19.4384896,37.0522338 18.5483776,39.2375 C17.6585216,41.4227662 18.7094016,43.915474 20.8956416,44.8048766 C21.3267456,44.9801234 21.7693696,45.0791429 22.2096896,45.1097857 L22.3213056,46.3086558 C21.4176256,46.4590844 20.6099456,47.058013 20.2392576,47.9684351 C19.6711936,49.3633182 20.3419136,50.9547208 21.7378816,51.5225 C23.1335936,52.0905325 24.7256576,51.4199351 25.2937216,50.0247987 C25.8617856,48.6296623 25.1908096,47.0382597 23.7950976,46.4704805 C23.5478016,46.3699416 23.2946176,46.3101753 23.0416896,46.2843442 L23.0765056,45.0814221 C24.2011136,44.9292208 25.2412416,44.3333312 25.9350016,43.4011299 L27.8173696,44.5328896 C26.8768256,46.8379416 27.6576256,49.3504026 29.5346176,50.7148961 L28.3951616,52.868 C26.5038336,52.1072468 24.3513856,53.0171623 23.5818496,54.9063831 C22.8107776,56.8001623 23.7213696,58.9601039 25.6160256,59.730987 C27.5106816,60.5018701 29.6718336,59.5917013 30.4429056,57.6979221 C31.0867456,56.1169026 30.5578496,54.3507597 29.2630016,53.3618312 L30.5360896,51.2831818 C30.5670656,51.2966039 30.5975296,51.311039 30.6290176,51.3237013 C33.2722176,52.3992403 36.2871296,51.1292078 37.3630976,48.4873377 C38.4390656,45.8452143 37.1685376,42.8318312 34.5253376,41.7562922 C32.2799616,40.8428312 29.7668096,41.6223247 28.4015616,43.4971104 L26.4615936,42.4684221 Z"/>
      </g>
    </g>
    <g transform="translate(101 180)">
      <path fill="#7BCDF3" d="M13.4729697,32.0000003 C29.9504124,8.00000034 93.3885659,-9.9999991 109.866008,23.0000007 C126.343451,56.0000006 122.22409,152.000003 122.22409,152.000003 L1.11488777,152.000001 C1.11488777,152.000001 -3.00447306,56.0000002 13.4729697,32.0000003 Z"/>
      <path fill="#8DDBFF" d="M63.7291694,4 C63.7291694,4 102.195255,-11.0000001 120.576346,22 C138.957437,55.0000001 131.286684,152 131.286684,152 L63.7291694,152 L63.7291694,4 Z"/>
      <circle cx="64" cy="23" r="20" fill="#FFC688"/>
      <path fill="#754C24" d="M98.459303,3 C98.459303,3 87.6214611,25 85.1498447,49 C82.6782283,73 83.6296025,94 83.6296025,94 L30.8438896,94 C30.8438896,94 29.1265401,77 30.9017863,53 C32.6770326,29 40.6607498,11 40.6607498,11 C40.6607498,11 34.893645,13 31.5981564,15 C28.3026679,17 25.8310516,20 25.8310516,20 C25.8310516,20 21.966695,27.9998932 19.3675766,53 C16.7684582,78.0001068 18.5437044,94 18.5437044,94 L1.11488775,95 C1.11488775,95 0.291015625,108 0.291015625,126 C0.291015625,144 1.11488775,152.000214 1.11488775,152.000214 L131.286684,152.000214 C131.286684,152.000214 132.934428,143 133.7583,122 C134.582172,101 132.934428,93 132.934428,93 L97.625622,93 C97.625622,93 96.6840545,76 98.4593007,53 C100.234547,30 109.993511,9 109.993511,9 C109.993511,9 107.394392,5 104.098904,4 C100.803415,3 98.459303,3 98.459303,3 Z"/>
      <circle cx="95.5" cy="105.5" r="8.5" fill="#AB8E54"/>
      <circle cx="17.5" cy="105.5" r="8.5" fill="#AB8E54"/>
      <g transform="translate(35 44)">
        <path fill="#8DDBFF" d="M70,6.03144947 L92.216294,0.0786114349 L111.495956,72.0312896 C113.141088,78.1710076 109.502794,84.4804592 103.366585,86.1246515 L103.366585,86.1246515 C97.2317247,87.7684823 90.9244753,84.1226543 89.279662,77.9841276 L70,6.03144947 L70,6.03144947 Z"/>
        <path fill="#FFD89C" d="M36,72.5096759 L41.952838,50.2933819 L104.253622,66.9868267 C110.389273,68.6308694 114.030974,74.9355672 112.386782,81.0717763 L112.386782,81.0717763 C110.742951,87.2066365 104.436668,90.8472259 98.3007843,89.2031207 L36,72.5096759 L36,72.5096759 Z"/>
        <rect width="10.369" height="34.263" x="12.873" y="27.76" fill="#FFD89C" rx="5.185" transform="rotate(-75 18.058 44.892)"/>
        <circle cx="34.5" cy="59.5" r="18.5" fill="#FFD89C"/>
      </g>
    </g>
    <g transform="translate(86 62)">
      <circle cx="126.5" cy="62.5" r="18.5" fill="#FFD89C"/>
      <circle cx="18.5" cy="62.5" r="18.5" fill="#FFC688"/>
      <rect width="125" height="63" x="9" fill="#42200B" rx="31.5"/>
      <path fill="#FFC688" d="M20,16 L72,16 L123,16 L123,92.4907925 C123,120.938542 99.9425775,144 71.5,144 L71.5,144 L71.5,144 C43.0573354,144 20,120.949831 20,92.4907925 L20,16 Z"/>
      <path fill="#FFD89C" d="M72,16 L123,16 L123,99 C123,99 123,116 107,130 C91,144 71.5,144 71.5,144 L72,16 Z"/>
      <path fill="#FFF" d="M53,99 L91,99 C91,99 93.0000011,111 71.5,111 C49.9999989,111 53,99 53,99 Z"/>
      <ellipse cx="70.5" cy="12" fill="#42200B" rx="30" ry="11"/>
      <path fill="#42200B" d="M20,18 L23,18 C23,18 13.9999977,107 72,107 C130.000002,107 120,18 120,18 L123,18 L123.586585,91.9097363 C123.814908,120.678395 100.686117,144.444074 71.9225958,144.991951 L71.5,145 L71.0774042,144.991951 C42.3158481,144.444111 19.1850185,120.687673 19.4134148,91.9097363 L20,18 Z"/>
      <path fill="#42200B" d="M47,89 L72,98 L97,89 C97,89 112.906977,109 72,109 C31.0930233,109 47,89 47,89 Z" transform="matrix(1 0 0 -1 0 198)"/>
      <path fill="url(#farmer-field-a)" d="M53,45 L71.6796117,45 L90,45 L90,75.4926609 C90,85.713982 81.7239782,94 71.5,94 L71.5,94 L71.5,94 C61.2827321,94 53,85.7155391 53,75.4926609 L53,45 Z"/>
      <g transform="translate(91 40)">
        <path fill="#42200B" d="M2.00756197,14.6666667 C0.752220356,13.1195343 0,11.1476124 0,9 C0,4.02943725 4.02943725,0 9,0 C13.9705627,0 18,4.02943725 18,9 C18,11.1476124 17.2477796,13.1195343 15.992438,14.6666667 C14.3423418,13.649845 11.8229503,13 9,13 C6.17704965,13 3.65765815,13.649845 2.00756197,14.6666667 Z"/>
        <circle cx="9" cy="8" r="2" fill="#FFF"/>
      </g>
      <g transform="translate(34 40)">
        <path fill="#42200B" d="M2.00756197,14.6666667 C0.752220356,13.1195343 0,11.1476124 0,9 C0,4.02943725 4.02943725,0 9,0 C13.9705627,0 18,4.02943725 18,9 C18,11.1476124 17.2477796,13.1195343 15.992438,14.6666667 C14.3423418,13.649845 11.8229503,13 9,13 C6.17704965,13 3.65765815,13.649845 2.00756197,14.6666667 Z"/>
        <circle cx="9" cy="8" r="2" fill="#FFF"/>
      </g>
    </g>
    <g transform="translate(72)">
      <path fill="#603813" d="M85,-2.4381052e-08 C150.000003,-2.59270208e-08 141,76 141,76 L29,76 C29,76 19.999997,-2.28350747e-08 85,-2.4381052e-08 Z"/>
      <path fill="#754C24" d="M85,-2.4381052e-08 C150.000003,-2.59270208e-08 141,76 141,76 L85,76 C85,76 85,1.99999998 85,-2.4381052e-08 Z"/>
      <path fill="#A67C52" d="M9.93969305e-17,77.0010987 C9.93969305e-17,74.2390681 2.23887124,71.8070717 4.98194306,71.5813716 C4.98194306,71.5813716 44.4121062,68 85.7246963,68 C127.037286,68 166.041967,71.5794901 166.041967,71.5794901 C168.780213,71.8117313 171,74.2392729 171,77.0010987 L171,77.9989013 C171,80.7609319 168.775007,82.8043639 166.023954,82.5738251 C166.023954,82.5738251 127.544174,79 85.9485183,79 C44.3528624,79 4.95475799,82.5832497 4.95475799,82.5832497 C2.21832071,82.8134145 9.93969305e-17,80.7607271 9.93969305e-17,77.9989013 L9.93969305e-17,77.0010987 Z"/>
    </g>
  </g>
</svg>
