<svg xmlns="http://www.w3.org/2000/svg" viewBox="0 0 129.385 68.083"><defs><style>.a{fill:#a2bc3a;}.a,.b,.c{fill-rule:evenodd;}.b,.d{fill:#729225;}.c{fill:#5a310e;}</style></defs><g transform="translate(0 0.024)"><g transform="translate(29.854 -0.024)"><path class="a" d="M86.35,53.421h0a7.35,7.35,0,0,0,.75-2.948,4.657,4.657,0,0,0-.75-2.573h0a4.88,4.88,0,0,0-.75,2.573,7.35,7.35,0,0,0,.75,2.948Z" transform="translate(-69.574 -22.213)"/><path class="a" d="M86.35,59.9h0a4.389,4.389,0,0,0-.75,2.573,7.35,7.35,0,0,0,.75,2.948h0a7.35,7.35,0,0,0,.75-2.948A4.389,4.389,0,0,0,86.35,59.9Z" transform="translate(-69.574 -27.782)"/><path class="a" d="M82.217,56.19a6.47,6.47,0,0,0-2.144-2.144,3.687,3.687,0,0,0-2.573-.59h0a4.339,4.339,0,0,0,1.822,1.983,6.387,6.387,0,0,0,2.894.75Z" transform="translate(-65.816 -24.769)"/><path class="a" d="M92.517,62.19a6.469,6.469,0,0,0-2.144-2.144,3.687,3.687,0,0,0-2.573-.59h0a4.339,4.339,0,0,0,1.822,1.983,6.528,6.528,0,0,0,2.894.75Z" transform="translate(-70.595 -27.553)"/><path class="a" d="M77.4,62.187h0a4.491,4.491,0,0,0,2.626-.643A7.15,7.15,0,0,0,82.17,59.4h0a6.172,6.172,0,0,0-2.894.8A4.279,4.279,0,0,0,77.4,62.187Z" transform="translate(-65.769 -27.55)"/><path class="a" d="M92.517,53.4h0a6.172,6.172,0,0,0-2.894.8A4.339,4.339,0,0,0,87.8,56.187h0a4.491,4.491,0,0,0,2.573-.59,6.392,6.392,0,0,0,2.144-2.2Z" transform="translate(-70.595 -24.766)"/><path class="a" d="M86.35,24.1h0a4.88,4.88,0,0,0-.75,2.573,7.35,7.35,0,0,0,.75,2.948h0a7.35,7.35,0,0,0,.75-2.948,4.389,4.389,0,0,0-.75-2.573Z" transform="translate(-69.574 -11.17)"/><path class="a" d="M86.35,41.721h0a7.35,7.35,0,0,0,.75-2.948,4.657,4.657,0,0,0-.75-2.573h0a4.88,4.88,0,0,0-.75,2.573,7.35,7.35,0,0,0,.75,2.948Z" transform="translate(-69.574 -16.784)"/><path class="a" d="M82.217,32.39a6.47,6.47,0,0,0-2.144-2.144,3.687,3.687,0,0,0-2.573-.59h0a4.339,4.339,0,0,0,1.822,1.983,6.387,6.387,0,0,0,2.894.75Z" transform="translate(-65.816 -13.725)"/><path class="a" d="M92.517,38.49a6.47,6.47,0,0,0-2.144-2.144,3.687,3.687,0,0,0-2.573-.59h0a4.34,4.34,0,0,0,1.822,1.983,7.484,7.484,0,0,0,2.894.75Z" transform="translate(-70.595 -16.556)"/><path class="a" d="M77.4,38.487h0a4.491,4.491,0,0,0,2.626-.643A7.15,7.15,0,0,0,82.17,35.7h0a6.172,6.172,0,0,0-2.894.8A4.279,4.279,0,0,0,77.4,38.487Z" transform="translate(-65.769 -16.552)"/><path class="a" d="M92.517,29.7h0a6.172,6.172,0,0,0-2.894.8A4.339,4.339,0,0,0,87.8,32.487h0a4.491,4.491,0,0,0,2.573-.59,6.921,6.921,0,0,0,2.144-2.2Z" transform="translate(-70.595 -13.768)"/><path class="a" d="M86.35,5.821h0a6.486,6.486,0,0,0,.75-2.948A4.657,4.657,0,0,0,86.35.3h0a4.88,4.88,0,0,0-.75,2.573A6.728,6.728,0,0,0,86.35,5.821Z" transform="translate(-69.574 -0.126)"/><path class="a" d="M86.35,12.4h0a4.88,4.88,0,0,0-.75,2.573,7.35,7.35,0,0,0,.75,2.948h0a7.35,7.35,0,0,0,.75-2.948,4.206,4.206,0,0,0-.75-2.573Z" transform="translate(-69.574 -5.741)"/><path class="a" d="M96.248,11.921h0A6.486,6.486,0,0,0,97,8.973a4.657,4.657,0,0,0-.75-2.573h0a4.88,4.88,0,0,0-.75,2.573A5.813,5.813,0,0,0,96.248,11.921Z" transform="translate(-74.166 -2.957)"/><path class="a" d="M96.25,18.4h0a4.88,4.88,0,0,0-.75,2.573,7.35,7.35,0,0,0,.75,2.948h0A7.35,7.35,0,0,0,97,20.973a4.88,4.88,0,0,0-.75-2.573Z" transform="translate(-74.168 -8.525)"/><path class="a" d="M96.248,35.521h0A7.35,7.35,0,0,0,97,32.573,4.657,4.657,0,0,0,96.248,30h0a4.88,4.88,0,0,0-.75,2.573,5.813,5.813,0,0,0,.75,2.948Z" transform="translate(-74.166 -13.907)"/><path class="a" d="M96.248,47.521h0A7.35,7.35,0,0,0,97,44.573,4.657,4.657,0,0,0,96.248,42h0a4.88,4.88,0,0,0-.75,2.573,5.408,5.408,0,0,0,.75,2.948Z" transform="translate(-74.166 -19.476)"/><path class="a" d="M116.05,23.621h0a6.486,6.486,0,0,0,.75-2.948,4.657,4.657,0,0,0-.75-2.573h0a4.88,4.88,0,0,0-.75,2.573A7.35,7.35,0,0,0,116.05,23.621Z" transform="translate(-83.356 -8.386)"/><path class="a" d="M116.05,30.1h0a4.389,4.389,0,0,0-.75,2.573,7.35,7.35,0,0,0,.75,2.948h0a7.35,7.35,0,0,0,.75-2.948,4,4,0,0,0-.75-2.573Z" transform="translate(-83.356 -13.954)"/><path class="a" d="M116.05,41.7h0a4.389,4.389,0,0,0-.75,2.573,7.35,7.35,0,0,0,.75,2.948h0a7.35,7.35,0,0,0,.75-2.948,4,4,0,0,0-.75-2.573Z" transform="translate(-83.356 -19.337)"/><path class="a" d="M96.25,53.8h0a4.389,4.389,0,0,0-.75,2.573,7.35,7.35,0,0,0,.75,2.948h0A7.35,7.35,0,0,0,97,56.373,4.88,4.88,0,0,0,96.25,53.8Z" transform="translate(-74.168 -24.951)"/><path class="a" d="M77.4,5.889a4.339,4.339,0,0,0,1.822,1.983,6.172,6.172,0,0,0,2.894.8h0a6.47,6.47,0,0,0-2.144-2.144A4.3,4.3,0,0,0,77.4,5.889Z" transform="translate(-65.769 -2.713)"/><path class="a" d="M87.8,11.959a4.339,4.339,0,0,0,1.822,1.983,6.172,6.172,0,0,0,2.894.8h0A6.469,6.469,0,0,0,90.373,12.6a3.568,3.568,0,0,0-2.573-.643Z" transform="translate(-70.595 -5.514)"/><path class="a" d="M77.4,14.733h0a4.694,4.694,0,0,0,2.626-.59A7.15,7.15,0,0,0,82.17,12h0a6.172,6.172,0,0,0-2.894.8,4.045,4.045,0,0,0-1.876,1.93Z" transform="translate(-65.769 -5.555)"/><path class="a" d="M92.517,5.9h0a6.172,6.172,0,0,0-2.894.8A4.339,4.339,0,0,0,87.8,8.687h0a4.491,4.491,0,0,0,2.573-.59,6.392,6.392,0,0,0,2.144-2.2Z" transform="translate(-70.595 -2.725)"/><path class="a" d="M87.8-.011a4.339,4.339,0,0,0,1.822,1.983,6.172,6.172,0,0,0,2.894.8h0A6.469,6.469,0,0,0,90.373.632,4.353,4.353,0,0,0,87.8-.011Z" transform="translate(-70.595 0.024)"/><path class="a" d="M77.4,2.787h0a4.491,4.491,0,0,0,2.626-.643A7.15,7.15,0,0,0,82.17,0h0a6.172,6.172,0,0,0-2.894.8A4.279,4.279,0,0,0,77.4,2.787Z" transform="translate(-65.769 0.013)"/><path class="a" d="M77.4,17.689a4.339,4.339,0,0,0,1.822,1.983,6.172,6.172,0,0,0,2.894.8h0a6.47,6.47,0,0,0-2.144-2.144,4.3,4.3,0,0,0-2.573-.643Z" transform="translate(-65.769 -8.189)"/><path class="a" d="M87.8,23.689a4.339,4.339,0,0,0,1.822,1.983,6.172,6.172,0,0,0,2.894.8h0a6.47,6.47,0,0,0-2.144-2.144,4.353,4.353,0,0,0-2.573-.643Z" transform="translate(-70.595 -10.973)"/><path class="a" d="M77.4,26.533h0a4.694,4.694,0,0,0,2.626-.59A7.15,7.15,0,0,0,82.17,23.8h0a6.172,6.172,0,0,0-2.894.8,4.045,4.045,0,0,0-1.876,1.93Z" transform="translate(-65.769 -11.031)"/><path class="a" d="M92.517,17.7h0a6.172,6.172,0,0,0-2.894.8A4.339,4.339,0,0,0,87.8,20.487h0a4.491,4.491,0,0,0,2.573-.59,6.392,6.392,0,0,0,2.144-2.2Z" transform="translate(-70.595 -8.2)"/><path class="a" d="M82.217,44.29a6.47,6.47,0,0,0-2.144-2.144,3.687,3.687,0,0,0-2.573-.59h0a4.339,4.339,0,0,0,1.822,1.983,6.387,6.387,0,0,0,2.894.75Z" transform="translate(-65.816 -19.247)"/><path class="a" d="M92.517,50.29a6.47,6.47,0,0,0-2.144-2.144,3.687,3.687,0,0,0-2.573-.59h0a4.339,4.339,0,0,0,1.822,1.983,6.528,6.528,0,0,0,2.894.75Z" transform="translate(-70.595 -22.031)"/><path class="a" d="M77.4,50.287h0a4.491,4.491,0,0,0,2.626-.643A7.15,7.15,0,0,0,82.17,47.5h0a6.172,6.172,0,0,0-2.894.8A4.555,4.555,0,0,0,77.4,50.287Z" transform="translate(-65.769 -22.028)"/><path class="a" d="M92.517,41.5h0a6.172,6.172,0,0,0-2.894.8A4.339,4.339,0,0,0,87.8,44.287h0a4.491,4.491,0,0,0,2.573-.59,6.392,6.392,0,0,0,2.144-2.2Z" transform="translate(-70.595 -19.244)"/><path class="a" d="M82.217,68.09a6.47,6.47,0,0,0-2.144-2.144,3.687,3.687,0,0,0-2.573-.59h0a4.34,4.34,0,0,0,1.822,1.983,6.387,6.387,0,0,0,2.894.75Z" transform="translate(-65.816 -30.291)"/><path class="a" d="M92.517,65.3h0a6.172,6.172,0,0,0-2.894.8A4.339,4.339,0,0,0,87.8,68.087h0a4.491,4.491,0,0,0,2.573-.59,6.392,6.392,0,0,0,2.144-2.2Z" transform="translate(-70.595 -30.287)"/><path class="a" d="M106.25,47.9h0a4.389,4.389,0,0,0-.75,2.573,7.35,7.35,0,0,0,.75,2.948h0a7.35,7.35,0,0,0,.75-2.948A4.447,4.447,0,0,0,106.25,47.9Z" transform="translate(-78.808 -22.213)"/><path class="a" d="M102.017,56.19a6.47,6.47,0,0,0-2.144-2.144,3.687,3.687,0,0,0-2.573-.59h0a4.339,4.339,0,0,0,1.822,1.983,6.528,6.528,0,0,0,2.894.75Z" transform="translate(-75.003 -24.769)"/><path class="a" d="M102.017,59.5h0a6.172,6.172,0,0,0-2.894.8A4.339,4.339,0,0,0,97.3,62.287h0a4.491,4.491,0,0,0,2.573-.59,6.8,6.8,0,0,0,2.144-2.2Z" transform="translate(-75.003 -27.596)"/><path class="a" d="M112.417,53.4h0a6.172,6.172,0,0,0-2.894.8,4.34,4.34,0,0,0-1.822,1.983h0a4.491,4.491,0,0,0,2.573-.59,7.04,7.04,0,0,0,2.144-2.2Z" transform="translate(-79.829 -24.766)"/><path class="a" d="M106.25,24.1h0a4.88,4.88,0,0,0-.75,2.573,7.35,7.35,0,0,0,.75,2.948h0a7.35,7.35,0,0,0,.75-2.948,4.88,4.88,0,0,0-.75-2.573Z" transform="translate(-78.808 -11.17)"/><path class="a" d="M106.248,41.721h0a7.35,7.35,0,0,0,.75-2.948,4.657,4.657,0,0,0-.75-2.573h0a4.88,4.88,0,0,0-.75,2.573,5.813,5.813,0,0,0,.75,2.948Z" transform="translate(-78.806 -16.784)"/><path class="a" d="M97.3,29.689a4.339,4.339,0,0,0,1.822,1.983,6.172,6.172,0,0,0,2.894.8h0a6.47,6.47,0,0,0-2.144-2.144,4.3,4.3,0,0,0-2.573-.643Z" transform="translate(-75.003 -13.757)"/><path class="a" d="M112.417,38.49a6.47,6.47,0,0,0-2.144-2.144,3.687,3.687,0,0,0-2.573-.59h0a4.34,4.34,0,0,0,1.822,1.983,7.484,7.484,0,0,0,2.894.75Z" transform="translate(-79.829 -16.556)"/><path class="a" d="M102.017,35.7h0a6.172,6.172,0,0,0-2.894.8A4.339,4.339,0,0,0,97.3,38.487h0a4.491,4.491,0,0,0,2.573-.59,6.283,6.283,0,0,0,2.144-2.2Z" transform="translate(-75.003 -16.552)"/><path class="a" d="M112.417,29.7h0a6.172,6.172,0,0,0-2.894.8,4.339,4.339,0,0,0-1.822,1.983h0a4.491,4.491,0,0,0,2.573-.59,7.7,7.7,0,0,0,2.144-2.2Z" transform="translate(-79.829 -13.768)"/><path class="a" d="M106.248,17.921h0a6.486,6.486,0,0,0,.75-2.948,4.657,4.657,0,0,0-.75-2.573h0a4.88,4.88,0,0,0-.75,2.573A5.813,5.813,0,0,0,106.248,17.921Z" transform="translate(-78.806 -5.741)"/><path class="a" d="M97.3,5.889a4.339,4.339,0,0,0,1.822,1.983,6.172,6.172,0,0,0,2.894.8h0a6.47,6.47,0,0,0-2.144-2.144A4.3,4.3,0,0,0,97.3,5.889Z" transform="translate(-75.003 -2.713)"/><path class="a" d="M107.6,11.959a4.339,4.339,0,0,0,1.822,1.983,6.172,6.172,0,0,0,2.894.8h0a6.47,6.47,0,0,0-2.144-2.144,3.514,3.514,0,0,0-2.573-.643Z" transform="translate(-79.783 -5.514)"/><path class="a" d="M102.017,11.9h0a6.172,6.172,0,0,0-2.894.8A4.339,4.339,0,0,0,97.3,14.687h0a4.491,4.491,0,0,0,2.573-.59,5.849,5.849,0,0,0,2.144-2.2Z" transform="translate(-75.003 -5.509)"/><path class="a" d="M97.3,17.689a4.339,4.339,0,0,0,1.822,1.983,6.172,6.172,0,0,0,2.894.8h0a6.47,6.47,0,0,0-2.144-2.144,4.3,4.3,0,0,0-2.573-.643Z" transform="translate(-75.003 -8.189)"/><path class="a" d="M107.6,23.689a4.339,4.339,0,0,0,1.822,1.983,6.172,6.172,0,0,0,2.894.8h0a6.47,6.47,0,0,0-2.144-2.144,4.242,4.242,0,0,0-2.573-.643Z" transform="translate(-79.783 -10.973)"/><path class="a" d="M102.017,23.7h0a6.172,6.172,0,0,0-2.894.8A4.339,4.339,0,0,0,97.3,26.487h0a4.491,4.491,0,0,0,2.573-.59,5.849,5.849,0,0,0,2.144-2.2Z" transform="translate(-75.003 -10.984)"/><path class="a" d="M112.417,17.7h0a6.172,6.172,0,0,0-2.894.8,4.34,4.34,0,0,0-1.822,1.983h0a4.491,4.491,0,0,0,2.573-.59,7.04,7.04,0,0,0,2.144-2.2Z" transform="translate(-79.829 -8.2)"/><path class="a" d="M102.017,44.29a6.47,6.47,0,0,0-2.144-2.144,3.687,3.687,0,0,0-2.573-.59h0a4.339,4.339,0,0,0,1.822,1.983,6.528,6.528,0,0,0,2.894.75Z" transform="translate(-75.003 -19.247)"/><path class="a" d="M112.417,50.29a6.47,6.47,0,0,0-2.144-2.144,3.688,3.688,0,0,0-2.573-.59h0a4.34,4.34,0,0,0,1.822,1.983,6.528,6.528,0,0,0,2.894.75Z" transform="translate(-79.829 -22.031)"/><path class="a" d="M102.017,47.6h0a6.172,6.172,0,0,0-2.894.8A4.339,4.339,0,0,0,97.3,50.387h0a4.491,4.491,0,0,0,2.573-.59,6.283,6.283,0,0,0,2.144-2.2Z" transform="translate(-75.003 -22.074)"/><path class="a" d="M112.417,41.5h0a6.172,6.172,0,0,0-2.894.8,4.339,4.339,0,0,0-1.822,1.983h0a4.491,4.491,0,0,0,2.573-.59,7.04,7.04,0,0,0,2.144-2.2Z" transform="translate(-79.829 -19.244)"/><path class="a" d="M76.348,11.921h0a6.486,6.486,0,0,0,.75-2.948,4.657,4.657,0,0,0-.75-2.573h0a4.88,4.88,0,0,0-.75,2.573A5.813,5.813,0,0,0,76.348,11.921Z" transform="translate(-64.932 -2.957)"/><path class="a" d="M76.35,18.4h0a4.88,4.88,0,0,0-.75,2.573,7.35,7.35,0,0,0,.75,2.948h0a7.35,7.35,0,0,0,.75-2.948,4.88,4.88,0,0,0-.75-2.573Z" transform="translate(-64.934 -8.525)"/><path class="a" d="M76.348,35.521h0a7.35,7.35,0,0,0,.75-2.948A4.657,4.657,0,0,0,76.348,30h0a4.88,4.88,0,0,0-.75,2.573,5.813,5.813,0,0,0,.75,2.948Z" transform="translate(-64.932 -13.907)"/><path class="a" d="M76.348,47.521h0a7.35,7.35,0,0,0,.75-2.948A4.657,4.657,0,0,0,76.348,42h0a4.88,4.88,0,0,0-.75,2.573,5.408,5.408,0,0,0,.75,2.948Z" transform="translate(-64.932 -19.476)"/><path class="a" d="M56.45,23.621h0a6.486,6.486,0,0,0,.75-2.948,4.657,4.657,0,0,0-.75-2.573h0a4.88,4.88,0,0,0-.75,2.573,7.35,7.35,0,0,0,.75,2.948Z" transform="translate(-55.7 -8.386)"/><path class="a" d="M56.45,35.621h0a6.486,6.486,0,0,0,.75-2.948,4.657,4.657,0,0,0-.75-2.573h0a4.88,4.88,0,0,0-.75,2.573,7.029,7.029,0,0,0,.75,2.948Z" transform="translate(-55.7 -13.954)"/><path class="a" d="M56.45,41.7h0a4.389,4.389,0,0,0-.75,2.573,7.35,7.35,0,0,0,.75,2.948h0a7.35,7.35,0,0,0,.75-2.948A4,4,0,0,0,56.45,41.7Z" transform="translate(-55.7 -19.337)"/><path class="a" d="M76.35,53.8h0a4.389,4.389,0,0,0-.75,2.573,7.35,7.35,0,0,0,.75,2.948h0a7.35,7.35,0,0,0,.75-2.948A4.88,4.88,0,0,0,76.35,53.8Z" transform="translate(-64.934 -24.951)"/><path class="a" d="M66.25,47.879h0a4.389,4.389,0,0,0-.75,2.573,7.35,7.35,0,0,0,.75,2.948h0A7.35,7.35,0,0,0,67,50.452,3.7,3.7,0,0,0,66.25,47.879Z" transform="translate(-60.247 -22.193)"/><path class="a" d="M67.7,56.175a6.172,6.172,0,0,0,2.894-.8,4.339,4.339,0,0,0,1.822-1.983h0a4.491,4.491,0,0,0-2.573.59,6.921,6.921,0,0,0-2.144,2.2Z" transform="translate(-61.268 -24.753)"/><path class="a" d="M72.417,62.187A4.339,4.339,0,0,0,70.594,60.2a6.172,6.172,0,0,0-2.894-.8h0a6.47,6.47,0,0,0,2.144,2.144,4.353,4.353,0,0,0,2.573.643Z" transform="translate(-61.268 -27.55)"/><path class="a" d="M62.117,56.187A4.34,4.34,0,0,0,60.294,54.2a6.172,6.172,0,0,0-2.894-.8h0a6.47,6.47,0,0,0,2.144,2.144,4.3,4.3,0,0,0,2.573.643Z" transform="translate(-56.489 -24.766)"/><path class="a" d="M66.25,24.1h0a4.88,4.88,0,0,0-.75,2.573,7.35,7.35,0,0,0,.75,2.948h0A7.35,7.35,0,0,0,67,26.673a4,4,0,0,0-.75-2.573Z" transform="translate(-60.247 -11.17)"/><path class="a" d="M66.25,41.721h0A7.35,7.35,0,0,0,67,38.773a4.657,4.657,0,0,0-.75-2.573h0a4.88,4.88,0,0,0-.75,2.573,7.35,7.35,0,0,0,.75,2.948Z" transform="translate(-60.247 -16.784)"/><path class="a" d="M72.417,29.687a4.491,4.491,0,0,0-2.573.59A7.15,7.15,0,0,0,67.7,32.421h0a6.172,6.172,0,0,0,2.894-.8,4.1,4.1,0,0,0,1.822-1.93Z" transform="translate(-61.268 -13.756)"/><path class="a" d="M57.3,38.475h0a6.172,6.172,0,0,0,2.894-.8,4.339,4.339,0,0,0,1.822-1.983h0a4.491,4.491,0,0,0-2.573.59,7.04,7.04,0,0,0-2.144,2.2Z" transform="translate(-56.442 -16.54)"/><path class="a" d="M72.417,38.487A4.339,4.339,0,0,0,70.594,36.5a6.172,6.172,0,0,0-2.894-.8h0a6.47,6.47,0,0,0,2.144,2.144,4.353,4.353,0,0,0,2.573.643Z" transform="translate(-61.268 -16.552)"/><path class="a" d="M57.365,29.7a6.469,6.469,0,0,0,2.144,2.144,3.687,3.687,0,0,0,2.573.59h0a4.339,4.339,0,0,0-1.822-1.983,6.675,6.675,0,0,0-2.894-.75Z" transform="translate(-56.454 -13.768)"/><path class="a" d="M66.25,17.921h0A6.486,6.486,0,0,0,67,14.973a4.657,4.657,0,0,0-.75-2.573h0a4.88,4.88,0,0,0-.75,2.573A7.35,7.35,0,0,0,66.25,17.921Z" transform="translate(-60.247 -5.741)"/><path class="a" d="M67.7,8.675h0a6.172,6.172,0,0,0,2.894-.8,4.34,4.34,0,0,0,1.822-1.983h0a4.491,4.491,0,0,0-2.573.59,6.392,6.392,0,0,0-2.144,2.2Z" transform="translate(-61.268 -2.712)"/><path class="a" d="M57.3,14.675h0a6.172,6.172,0,0,0,2.894-.8,4.34,4.34,0,0,0,1.822-1.983h0a4.491,4.491,0,0,0-2.573.59,7.7,7.7,0,0,0-2.144,2.2Z" transform="translate(-56.442 -5.496)"/><path class="a" d="M69.844,14.144a3.687,3.687,0,0,0,2.573.59h0a4.339,4.339,0,0,0-1.822-1.983A6.528,6.528,0,0,0,67.7,12h0A7.042,7.042,0,0,0,69.844,14.144Z" transform="translate(-61.268 -5.555)"/><path class="a" d="M72.417,17.687a4.491,4.491,0,0,0-2.573.59A7.15,7.15,0,0,0,67.7,20.421h0a6.172,6.172,0,0,0,2.894-.8,4.1,4.1,0,0,0,1.822-1.93Z" transform="translate(-61.268 -8.188)"/><path class="a" d="M62.117,23.687a4.491,4.491,0,0,0-2.573.59A7.151,7.151,0,0,0,57.4,26.421h0a6.172,6.172,0,0,0,2.894-.8,4.1,4.1,0,0,0,1.822-1.93Z" transform="translate(-56.489 -10.972)"/><path class="a" d="M67.7,23.7a6.47,6.47,0,0,0,2.144,2.144,3.687,3.687,0,0,0,2.573.59h0a4.34,4.34,0,0,0-1.822-1.983A7.484,7.484,0,0,0,67.7,23.7Z" transform="translate(-61.268 -10.984)"/><path class="a" d="M59.444,19.8a3.687,3.687,0,0,0,2.573.59h0A4.339,4.339,0,0,0,60.194,18.4a6.172,6.172,0,0,0-2.894-.8h0A6.038,6.038,0,0,0,59.444,19.8Z" transform="translate(-56.442 -8.154)"/><path class="a" d="M67.7,44.275a6.172,6.172,0,0,0,2.894-.8,4.339,4.339,0,0,0,1.822-1.983h0a4.491,4.491,0,0,0-2.573.59,6.921,6.921,0,0,0-2.144,2.2Z" transform="translate(-61.268 -19.231)"/><path class="a" d="M57.4,50.275a6.172,6.172,0,0,0,2.894-.8,4.34,4.34,0,0,0,1.822-1.983h0a4.491,4.491,0,0,0-2.573.59,6.283,6.283,0,0,0-2.144,2.2Z" transform="translate(-56.489 -22.015)"/><path class="a" d="M72.417,50.287A4.339,4.339,0,0,0,70.594,48.3a6.172,6.172,0,0,0-2.894-.8h0a6.47,6.47,0,0,0,2.144,2.144,4.353,4.353,0,0,0,2.573.643Z" transform="translate(-61.268 -22.028)"/><path class="a" d="M62.117,44.287A4.339,4.339,0,0,0,60.294,42.3a6.172,6.172,0,0,0-2.894-.8h0a6.47,6.47,0,0,0,2.144,2.144,4.3,4.3,0,0,0,2.573.643Z" transform="translate(-56.489 -19.244)"/></g><g transform="translate(28.032 1.543)"><path class="b" d="M95.921,50.97a6.457,6.457,0,0,0-.8-2.948,4.67,4.67,0,0,0-1.93-1.822h0a4.638,4.638,0,0,0,.59,2.626,7.866,7.866,0,0,0,2.144,2.144Z" transform="translate(-71.266 -22.992)"/><path class="b" d="M101.921,61.37a6.457,6.457,0,0,0-.8-2.948,4.67,4.67,0,0,0-1.93-1.822h0a4.694,4.694,0,0,0,.59,2.626,6.47,6.47,0,0,0,2.144,2.144Z" transform="translate(-74.05 -27.818)"/><path class="b" d="M93.167,55.1a6.61,6.61,0,0,0-2.894-.8,4.228,4.228,0,0,0-2.573.8h0a4.666,4.666,0,0,0,2.573.8,5.9,5.9,0,0,0,2.894-.8Z" transform="translate(-68.726 -26.751)"/><path class="b" d="M105.121,55.1h0a5.97,5.97,0,0,0-2.948-.8,4.228,4.228,0,0,0-2.573.8h0a4.666,4.666,0,0,0,2.573.8,6.213,6.213,0,0,0,2.948-.8Z" transform="translate(-74.248 -26.751)"/><path class="b" d="M95.207,59.548a6.319,6.319,0,0,0,.8-2.948h0a6.47,6.47,0,0,0-2.144,2.144,4.169,4.169,0,0,0-.59,2.626h0A4.67,4.67,0,0,0,95.207,59.548Z" transform="translate(-71.302 -27.818)"/><path class="b" d="M99.187,50.97h0a4.1,4.1,0,0,0,1.93-1.822,6.319,6.319,0,0,0,.8-2.948h0a6.47,6.47,0,0,0-2.144,2.144,4.638,4.638,0,0,0-.59,2.626Z" transform="translate(-74.05 -22.992)"/><path class="b" d="M101.621,40.97a6.457,6.457,0,0,0-.8-2.948,4.67,4.67,0,0,0-1.93-1.822h0a4.638,4.638,0,0,0,.59,2.626,7.151,7.151,0,0,0,2.144,2.144Z" transform="translate(-73.911 -18.352)"/><path class="b" d="M107.421,51.17a6.457,6.457,0,0,0-.8-2.948,4.67,4.67,0,0,0-1.93-1.822h0a4.694,4.694,0,0,0,.59,2.626,7.151,7.151,0,0,0,2.144,2.144Z" transform="translate(-76.602 -23.085)"/><path class="b" d="M87.221,44.9h0a5.97,5.97,0,0,0-2.948-.8,4.228,4.228,0,0,0-2.573.8h0a4.665,4.665,0,0,0,2.573.8,7.6,7.6,0,0,0,2.948-.8Z" transform="translate(-65.942 -22.018)"/><path class="b" d="M99.167,44.9h0a5.9,5.9,0,0,0-2.894-.8,4.228,4.228,0,0,0-2.573.8h0a4.666,4.666,0,0,0,2.573.8A7.169,7.169,0,0,0,99.167,44.9Z" transform="translate(-71.51 -22.018)"/><path class="b" d="M87.287,51.07h0a4.1,4.1,0,0,0,1.93-1.822,6.319,6.319,0,0,0,.8-2.948h0a6.469,6.469,0,0,0-2.144,2.144,4.751,4.751,0,0,0-.59,2.626Z" transform="translate(-68.528 -23.038)"/><path class="b" d="M99.067,65.4a6.61,6.61,0,0,0-2.894-.8,4.228,4.228,0,0,0-2.573.8h0a4.666,4.666,0,0,0,2.573.8,5.9,5.9,0,0,0,2.894-.8Z" transform="translate(-71.464 -31.53)"/><path class="b" d="M107.811,56.5h0a7.151,7.151,0,0,0-2.144,2.144,4.169,4.169,0,0,0-.59,2.626h0a4.1,4.1,0,0,0,1.93-1.822,6.457,6.457,0,0,0,.8-2.948Z" transform="translate(-76.778 -27.771)"/><path class="b" d="M112.417,38.022a4.67,4.67,0,0,0-1.93-1.822h0a4.638,4.638,0,0,0,.59,2.626,6.469,6.469,0,0,0,2.144,2.144h0A8.265,8.265,0,0,0,112.417,38.022Z" transform="translate(-79.293 -18.352)"/><path class="b" d="M110.367,45.1a6.61,6.61,0,0,0-2.894-.8,4.228,4.228,0,0,0-2.573.8h0a4.665,4.665,0,0,0,2.573.8,5.9,5.9,0,0,0,2.894-.8Z" transform="translate(-76.707 -22.11)"/><path class="b" d="M113.111,46.6h0a7.15,7.15,0,0,0-2.144,2.144,4.169,4.169,0,0,0-.59,2.626h0a4.1,4.1,0,0,0,1.93-1.822,6.457,6.457,0,0,0,.8-2.948Z" transform="translate(-79.237 -23.178)"/><path class="b" d="M119.111,36.1h0a6.47,6.47,0,0,0-2.144,2.144,4.169,4.169,0,0,0-.59,2.626h0a4.1,4.1,0,0,0,1.93-1.822,6.319,6.319,0,0,0,.8-2.948Z" transform="translate(-82.021 -18.305)"/><path class="b" d="M104.487,41.07h0a4.1,4.1,0,0,0,1.93-1.822,6.319,6.319,0,0,0,.8-2.948h0a6.469,6.469,0,0,0-2.144,2.144,4.638,4.638,0,0,0-.59,2.626Z" transform="translate(-76.509 -18.398)"/><path class="b" d="M82.247,48.826A6.47,6.47,0,0,0,84.39,50.97h0a6.457,6.457,0,0,0-.8-2.948,4.67,4.67,0,0,0-1.93-1.822h0A3.791,3.791,0,0,0,82.247,48.826Z" transform="translate(-65.899 -22.992)"/><path class="b" d="M66.217,57.822A4.67,4.67,0,0,0,64.287,56h0a4.638,4.638,0,0,0,.59,2.626,6.47,6.47,0,0,0,2.144,2.144h0A6.188,6.188,0,0,0,66.217,57.822Z" transform="translate(-57.856 -27.539)"/><path class="b" d="M89.417,58.222a4.67,4.67,0,0,0-1.93-1.822h0a4.638,4.638,0,0,0,.59,2.626,6.47,6.47,0,0,0,2.144,2.144h0A6.457,6.457,0,0,0,89.417,58.222Z" transform="translate(-68.621 -27.725)"/><path class="b" d="M77.817,58.122a4.67,4.67,0,0,0-1.93-1.822h0a4.638,4.638,0,0,0,.59,2.626,6.47,6.47,0,0,0,2.144,2.144h0A7.35,7.35,0,0,0,77.817,58.122Z" transform="translate(-63.238 -27.679)"/><path class="b" d="M83.944,58.926a4.169,4.169,0,0,0,.59-2.626h0a4.1,4.1,0,0,0-1.93,1.822,6.319,6.319,0,0,0-.8,2.948h0A6.47,6.47,0,0,0,83.944,58.926Z" transform="translate(-65.989 -27.679)"/><path class="b" d="M87.767,65.3a4.666,4.666,0,0,0-2.573-.8,5.665,5.665,0,0,0-2.894.8h0a6.61,6.61,0,0,0,2.894.8,5.219,5.219,0,0,0,2.573-.8Z" transform="translate(-66.221 -31.484)"/><path class="b" d="M75.767,65.3a4.665,4.665,0,0,0-2.573-.8,5.664,5.664,0,0,0-2.894.8h0a6.61,6.61,0,0,0,2.894.8,4.716,4.716,0,0,0,2.573-.8Z" transform="translate(-60.652 -31.484)"/><path class="b" d="M75.967,44.7h0a4.228,4.228,0,0,0-2.573-.8,5.665,5.665,0,0,0-2.894.8h0a6.61,6.61,0,0,0,2.894.8A5.219,5.219,0,0,0,75.967,44.7Z" transform="translate(-60.745 -21.925)"/><path class="b" d="M82.047,28.226A6.469,6.469,0,0,0,84.19,30.37h0a6.457,6.457,0,0,0-.8-2.948,4.67,4.67,0,0,0-1.93-1.822h0A3.817,3.817,0,0,0,82.047,28.226Z" transform="translate(-65.806 -13.433)"/><path class="b" d="M90.121,40.77a6.457,6.457,0,0,0-.8-2.948A4.67,4.67,0,0,0,87.387,36h0a4.694,4.694,0,0,0,.59,2.626,6.369,6.369,0,0,0,2.144,2.144Z" transform="translate(-68.575 -18.259)"/><path class="b" d="M81.321,34.6h0a5.97,5.97,0,0,0-2.948-.8,4.228,4.228,0,0,0-2.573.8h0a4.666,4.666,0,0,0,2.573.8,7.6,7.6,0,0,0,2.948-.8Z" transform="translate(-63.204 -17.238)"/><path class="b" d="M93.367,34.6h0a5.9,5.9,0,0,0-2.894-.8,4.228,4.228,0,0,0-2.573.8h0a4.666,4.666,0,0,0,2.573.8A7.932,7.932,0,0,0,93.367,34.6Z" transform="translate(-68.819 -17.238)"/><path class="b" d="M81.457,40.87h0a4.1,4.1,0,0,0,1.93-1.822,6.319,6.319,0,0,0,.8-2.948h0a6.469,6.469,0,0,0-2.144,2.144,3.791,3.791,0,0,0-.59,2.626Z" transform="translate(-65.806 -18.305)"/><path class="b" d="M90.111,25.6a6.469,6.469,0,0,0-2.144,2.144,4.169,4.169,0,0,0-.59,2.626h0a4.1,4.1,0,0,0,1.93-1.822,6.457,6.457,0,0,0,.8-2.948Z" transform="translate(-68.565 -13.433)"/><path class="b" d="M70.277,7.626A6.47,6.47,0,0,0,72.421,9.77h0a6.457,6.457,0,0,0-.8-2.948A4.359,4.359,0,0,0,69.687,5h0A4.638,4.638,0,0,0,70.277,7.626Z" transform="translate(-60.361 -3.874)"/><path class="b" d="M76.247,18.026A6.47,6.47,0,0,0,78.39,20.17h0a6.457,6.457,0,0,0-.8-2.948,4.67,4.67,0,0,0-1.93-1.822h0A3.791,3.791,0,0,0,76.247,18.026Z" transform="translate(-63.115 -8.7)"/><path class="b" d="M81.777,7.826A6.47,6.47,0,0,0,83.921,9.97h0a6.457,6.457,0,0,0-.8-2.948A4.67,4.67,0,0,0,81.187,5.2h0A4.638,4.638,0,0,0,81.777,7.826Z" transform="translate(-65.698 -3.967)"/><path class="b" d="M87.777,18.326a6.47,6.47,0,0,0,2.144,2.144h0a6.457,6.457,0,0,0-.8-2.948,4.67,4.67,0,0,0-1.93-1.822h0A4.694,4.694,0,0,0,87.777,18.326Z" transform="translate(-68.482 -8.839)"/><path class="b" d="M93.477,28.326a6.47,6.47,0,0,0,2.144,2.144h0a6.457,6.457,0,0,0-.8-2.948,4.67,4.67,0,0,0-1.93-1.822h0A4.638,4.638,0,0,0,93.477,28.326Z" transform="translate(-71.127 -13.48)"/><path class="b" d="M104.777,8.026a6.47,6.47,0,0,0,2.144,2.144h0a6.457,6.457,0,0,0-.8-2.948,4.67,4.67,0,0,0-1.93-1.822h0A4.751,4.751,0,0,0,104.777,8.026Z" transform="translate(-76.37 -4.06)"/><path class="b" d="M110.767,18.426a6.469,6.469,0,0,0,2.144,2.144h0a6.457,6.457,0,0,0-.8-2.948,4.67,4.67,0,0,0-1.93-1.822h0A4.169,4.169,0,0,0,110.767,18.426Z" transform="translate(-79.144 -8.886)"/><path class="b" d="M116.477,28.426a6.47,6.47,0,0,0,2.144,2.144h0a6.457,6.457,0,0,0-.8-2.948,4.67,4.67,0,0,0-1.93-1.822h0A4.638,4.638,0,0,0,116.477,28.426Z" transform="translate(-81.799 -13.526)"/><path class="b" d="M64.1,14h0a4.228,4.228,0,0,0,2.573.8,5.665,5.665,0,0,0,2.894-.8h0a6.61,6.61,0,0,0-2.894-.8A4.228,4.228,0,0,0,64.1,14Z" transform="translate(-57.775 -7.679)"/><path class="b" d="M76.1,14h0a4.228,4.228,0,0,0,2.573.8,5.665,5.665,0,0,0,2.894-.8h0a6.61,6.61,0,0,0-2.894-.8A3.889,3.889,0,0,0,76.1,14Z" transform="translate(-63.344 -7.679)"/><path class="b" d="M72.411,15.479a6.469,6.469,0,0,0-2.144,2.144,4.169,4.169,0,0,0-.59,2.626h0a4.1,4.1,0,0,0,1.93-1.822,6.6,6.6,0,0,0,.8-2.948Z" transform="translate(-60.351 -8.726)"/><path class="b" d="M76.267,7.144a4.169,4.169,0,0,0-.59,2.626h0a4.1,4.1,0,0,0,1.93-1.822A7.16,7.16,0,0,0,78.411,5h0A6.565,6.565,0,0,0,76.267,7.144Z" transform="translate(-63.136 -3.874)"/><path class="b" d="M70.2,3.7a4.665,4.665,0,0,0,2.573.8,5.664,5.664,0,0,0,2.894-.8h0a6.61,6.61,0,0,0-2.894-.8,3.889,3.889,0,0,0-2.573.8Z" transform="translate(-60.606 -2.9)"/><path class="b" d="M63.787,9.97h0a4.1,4.1,0,0,0,1.93-1.822,6.319,6.319,0,0,0,.8-2.948h0a6.469,6.469,0,0,0-2.144,2.144,4.638,4.638,0,0,0-.59,2.626Z" transform="translate(-57.624 -3.967)"/><path class="b" d="M70,24.2h0a4.228,4.228,0,0,0,2.573.8,5.665,5.665,0,0,0,2.894-.8h0a6.61,6.61,0,0,0-2.894-.8A4.716,4.716,0,0,0,70,24.2Z" transform="translate(-60.513 -12.412)"/><path class="b" d="M81.9,24.2h0a4.228,4.228,0,0,0,2.573.8,5.665,5.665,0,0,0,2.894-.8h0a6.61,6.61,0,0,0-2.894-.8A5.219,5.219,0,0,0,81.9,24.2Z" transform="translate(-66.035 -12.412)"/><path class="b" d="M77.507,28.548a6.319,6.319,0,0,0,.8-2.948h0a6.47,6.47,0,0,0-2.144,2.144,4.169,4.169,0,0,0-.59,2.626h0A3.9,3.9,0,0,0,77.507,28.548Z" transform="translate(-63.089 -13.433)"/><path class="b" d="M84.211,15.2a6.47,6.47,0,0,0-2.144,2.144,4.169,4.169,0,0,0-.59,2.626h0a4.1,4.1,0,0,0,1.93-1.822,6.319,6.319,0,0,0,.8-2.948Z" transform="translate(-65.827 -8.607)"/><path class="b" d="M93.287,40.67h0a4.1,4.1,0,0,0,1.93-1.822,6.319,6.319,0,0,0,.8-2.948h0a6.469,6.469,0,0,0-2.144,2.144,4.638,4.638,0,0,0-.59,2.626Z" transform="translate(-71.312 -18.213)"/><path class="b" d="M99.277,18.226a6.47,6.47,0,0,0,2.144,2.144h0a6.457,6.457,0,0,0-.8-2.948,4.67,4.67,0,0,0-1.93-1.822h0A4.751,4.751,0,0,0,99.277,18.226Z" transform="translate(-73.818 -8.793)"/><path class="b" d="M105.247,28.626a6.47,6.47,0,0,0,2.144,2.144h0a6.457,6.457,0,0,0-.8-2.948A4.67,4.67,0,0,0,104.657,26h0A3.791,3.791,0,0,0,105.247,28.626Z" transform="translate(-76.572 -13.619)"/><path class="b" d="M93.1,24.5h0a4.228,4.228,0,0,0,2.573.8,5.665,5.665,0,0,0,2.894-.8h0a6.61,6.61,0,0,0-2.894-.8A5.219,5.219,0,0,0,93.1,24.5Z" transform="translate(-71.232 -12.552)"/><path class="b" d="M105.1,24.5h0a4.228,4.228,0,0,0,2.573.8,5.665,5.665,0,0,0,2.894-.8h0a6.61,6.61,0,0,0-2.894-.8,4.716,4.716,0,0,0-2.573.8Z" transform="translate(-76.8 -12.552)"/><path class="b" d="M100.607,28.948a6.319,6.319,0,0,0,.8-2.948h0a6.469,6.469,0,0,0-2.144,2.144,4.169,4.169,0,0,0-.59,2.626h0A4.67,4.67,0,0,0,100.607,28.948Z" transform="translate(-73.808 -13.619)"/><path class="b" d="M105.267,17.744a4.169,4.169,0,0,0-.59,2.626h0a4.1,4.1,0,0,0,1.93-1.822,6.319,6.319,0,0,0,.8-2.948h0A5.992,5.992,0,0,0,105.267,17.744Z" transform="translate(-76.592 -8.793)"/><path class="b" d="M93.467,8.026a6.469,6.469,0,0,0,2.144,2.144h0a6.457,6.457,0,0,0-.8-2.948A4.67,4.67,0,0,0,92.878,5.4h0A4.169,4.169,0,0,0,93.467,8.026Z" transform="translate(-71.117 -4.06)"/><path class="b" d="M81.379,4a4.666,4.666,0,0,0,2.573.8A5.665,5.665,0,0,0,86.846,4h0a6.61,6.61,0,0,0-2.894-.8,3.889,3.889,0,0,0-2.573.8Z" transform="translate(-65.782 -3.039)"/><path class="b" d="M93.3,4a4.666,4.666,0,0,0,2.573.8A5.665,5.665,0,0,0,98.767,4h0a6.61,6.61,0,0,0-2.894-.8A4.228,4.228,0,0,0,93.3,4Z" transform="translate(-71.325 -3.039)"/><path class="b" d="M87.467,7.6a4.169,4.169,0,0,0-.59,2.626h0A4.1,4.1,0,0,0,88.807,8.4a6.607,6.607,0,0,0,.8-3h0A6.944,6.944,0,0,0,87.467,7.6Z" transform="translate(-68.333 -4.06)"/><path class="b" d="M87.2,14.2a4.665,4.665,0,0,0,2.573.8,5.665,5.665,0,0,0,2.894-.8h0a6.61,6.61,0,0,0-2.894-.8,4.228,4.228,0,0,0-2.573.8Z" transform="translate(-68.494 -7.772)"/><path class="b" d="M99.1,14.2h0a4.228,4.228,0,0,0,2.573.8,5.665,5.665,0,0,0,2.894-.8h0a6.61,6.61,0,0,0-2.894-.8,4.228,4.228,0,0,0-2.573.8Z" transform="translate(-74.016 -7.772)"/><path class="b" d="M95.411,15.6a6.47,6.47,0,0,0-2.144,2.144,4.169,4.169,0,0,0-.59,2.626h0a4.1,4.1,0,0,0,1.93-1.822,6.319,6.319,0,0,0,.8-2.948Z" transform="translate(-71.024 -8.793)"/><path class="b" d="M99.267,7.344a4.169,4.169,0,0,0-.59,2.626h0a4.1,4.1,0,0,0,1.93-1.822,6.319,6.319,0,0,0,.8-2.948h0A6.469,6.469,0,0,0,99.267,7.344Z" transform="translate(-73.808 -3.967)"/><path class="b" d="M104.421,34.8h0a5.97,5.97,0,0,0-2.948-.8,4.228,4.228,0,0,0-2.573.8h0a4.665,4.665,0,0,0,2.573.8,5.97,5.97,0,0,0,2.948-.8Z" transform="translate(-73.923 -17.331)"/><path class="b" d="M116.421,34.8h0a5.97,5.97,0,0,0-2.948-.8,4.228,4.228,0,0,0-2.573.8h0a4.666,4.666,0,0,0,2.573.8,6.213,6.213,0,0,0,2.948-.8Z" transform="translate(-79.492 -17.331)"/><path class="b" d="M111.167,28.044a4.169,4.169,0,0,0-.59,2.626h0a4.1,4.1,0,0,0,1.93-1.822,6.319,6.319,0,0,0,.8-2.948h0A5.17,5.17,0,0,0,111.167,28.044Z" transform="translate(-79.33 -13.572)"/><path class="b" d="M64.567,17.926a6.47,6.47,0,0,0,2.144,2.144h0a6.457,6.457,0,0,0-.8-2.948,4.67,4.67,0,0,0-1.93-1.822h0A4.208,4.208,0,0,0,64.567,17.926Z" transform="translate(-57.707 -8.654)"/><path class="b" d="M70.547,28.326A6.47,6.47,0,0,0,72.69,30.47h0a6.457,6.457,0,0,0-.8-2.948,4.67,4.67,0,0,0-1.93-1.822h0A3.791,3.791,0,0,0,70.547,28.326Z" transform="translate(-60.47 -13.48)"/><path class="b" d="M76.277,38.426a6.47,6.47,0,0,0,2.144,2.144h0a6.457,6.457,0,0,0-.8-2.948,4.67,4.67,0,0,0-1.93-1.822h0A4.751,4.751,0,0,0,76.277,38.426Z" transform="translate(-63.146 -18.166)"/><path class="b" d="M54.517,37.322a4.67,4.67,0,0,0-1.93-1.822h0a4.638,4.638,0,0,0,.59,2.626,6.47,6.47,0,0,0,2.144,2.144h0A6.319,6.319,0,0,0,54.517,37.322Z" transform="translate(-52.427 -18.027)"/><path class="b" d="M60.517,47.722a4.67,4.67,0,0,0-1.93-1.822h0a4.638,4.638,0,0,0,.59,2.626,6.469,6.469,0,0,0,2.144,2.144h0A8.536,8.536,0,0,0,60.517,47.722Z" transform="translate(-55.211 -22.853)"/><path class="b" d="M64.677,38.326a6.469,6.469,0,0,0,2.144,2.144h0a6.457,6.457,0,0,0-.8-2.948,4.67,4.67,0,0,0-1.93-1.822h0A4.638,4.638,0,0,0,64.677,38.326Z" transform="translate(-57.763 -18.12)"/><path class="b" d="M70.647,48.726A6.47,6.47,0,0,0,72.79,50.87h0a6.457,6.457,0,0,0-.8-2.948,4.67,4.67,0,0,0-1.93-1.822h0A3.791,3.791,0,0,0,70.647,48.726Z" transform="translate(-60.516 -22.946)"/><path class="b" d="M70.079,40.47a6.47,6.47,0,0,0,2.144-2.144,4.169,4.169,0,0,0,.59-2.626h0a4.1,4.1,0,0,0-1.93,1.822,6.457,6.457,0,0,0-.8,2.948Z" transform="translate(-60.539 -18.12)"/><path class="b" d="M66.244,48.726a4.169,4.169,0,0,0,.59-2.626h0a4.1,4.1,0,0,0-1.93,1.822,6.319,6.319,0,0,0-.8,2.948h0A5.9,5.9,0,0,0,66.244,48.726Z" transform="translate(-57.775 -22.946)"/><path class="b" d="M64.067,44.7h0a4.228,4.228,0,0,0-2.573-.8,5.665,5.665,0,0,0-2.894.8h0a6.61,6.61,0,0,0,2.894.8,5.219,5.219,0,0,0,2.573-.8Z" transform="translate(-55.223 -21.925)"/><path class="b" d="M58.877,28.226a6.47,6.47,0,0,0,2.144,2.144h0a6.457,6.457,0,0,0-.8-2.948,4.67,4.67,0,0,0-1.93-1.822h0A4.751,4.751,0,0,0,58.877,28.226Z" transform="translate(-55.072 -13.433)"/><path class="b" d="M58.3,19.97h0a7.15,7.15,0,0,0,2.144-2.144,4.169,4.169,0,0,0,.59-2.626h0a4.1,4.1,0,0,0-1.93,1.822,6.319,6.319,0,0,0-.8,2.948Z" transform="translate(-55.084 -8.607)"/><path class="b" d="M54.444,28.226a4.169,4.169,0,0,0,.59-2.626h0a4.1,4.1,0,0,0-1.93,1.822,6.319,6.319,0,0,0-.8,2.948h0A7.15,7.15,0,0,0,54.444,28.226Z" transform="translate(-52.3 -13.433)"/><path class="b" d="M58.7,24.1a6.61,6.61,0,0,0,2.894.8,4.228,4.228,0,0,0,2.573-.8h0a4.665,4.665,0,0,0-2.573-.8,7.536,7.536,0,0,0-2.894.8Z" transform="translate(-55.27 -12.366)"/><path class="b" d="M66.833,25.3h0a4.1,4.1,0,0,0-1.93,1.822,6.319,6.319,0,0,0-.8,2.948h0a6.47,6.47,0,0,0,2.144-2.144,4.638,4.638,0,0,0,.59-2.626Z" transform="translate(-57.775 -13.294)"/><path class="b" d="M60.244,38.426a4.169,4.169,0,0,0,.59-2.626h0a4.1,4.1,0,0,0-1.93,1.822,6.319,6.319,0,0,0-.8,2.948h0A5.992,5.992,0,0,0,60.244,38.426Z" transform="translate(-54.991 -18.166)"/><path class="b" d="M70.067,34.3h0a4.228,4.228,0,0,0-2.573-.8,5.665,5.665,0,0,0-2.894.8h0a6.61,6.61,0,0,0,2.894.8A4.228,4.228,0,0,0,70.067,34.3Z" transform="translate(-58.007 -17.099)"/><path class="b" d="M58.067,34.3h0a4.228,4.228,0,0,0-2.573-.8,5.665,5.665,0,0,0-2.894.8h0a6.61,6.61,0,0,0,2.894.8,3.889,3.889,0,0,0,2.573-.8Z" transform="translate(-52.439 -17.099)"/><path class="b" d="M75.9,50.77a6.47,6.47,0,0,0,2.144-2.144A4.169,4.169,0,0,0,78.633,46h0a4.1,4.1,0,0,0-1.93,1.822,6.457,6.457,0,0,0-.8,2.948Z" transform="translate(-63.251 -22.899)"/><path class="b" d="M72.09,59.026a4.169,4.169,0,0,0,.59-2.626h0a4.1,4.1,0,0,0-1.93,1.822A6.987,6.987,0,0,0,70,61.17h0A5.974,5.974,0,0,0,72.09,59.026Z" transform="translate(-60.513 -27.725)"/><path class="b" d="M81.867,55h0a4.228,4.228,0,0,0-2.573-.8A5.665,5.665,0,0,0,76.4,55h0a6.61,6.61,0,0,0,2.894.8,5.219,5.219,0,0,0,2.573-.8Z" transform="translate(-63.483 -26.704)"/><path class="b" d="M69.867,55h0a4.228,4.228,0,0,0-2.573-.8A5.664,5.664,0,0,0,64.4,55h0a6.61,6.61,0,0,0,2.894.8,4.716,4.716,0,0,0,2.573-.8Z" transform="translate(-57.915 -26.704)"/></g><g transform="translate(0 30.807)"><path class="c" d="M222.474,88.885a.988.988,0,0,1-1.018-.75L214.6,69h-4.5l-6.914,19.134a.988.988,0,0,1-1.018.75H202v3.7h2.251a3.1,3.1,0,0,0,1.769-.375,3.027,3.027,0,0,0,.965-1.5l1.447-4.127h7.932l1.447,4.127a2.791,2.791,0,0,0,.965,1.5,3.1,3.1,0,0,0,1.769.375h2.573v-3.7Zm-10.184-5.949h-2.948l1.983-5.9c.268-.858.59-2.037.911-3.537h.107l.911,3.537,1.983,5.9Z" transform="translate(-93.732 -62.836)"/><path class="c" d="M176.566,88.134,175.065,69h-4.449l-4.824,11.2c-.375.911-.75,1.93-1.126,3.162h-.054L163.488,80.2,158.664,69h-4.449l-1.5,19.134c-.054.482-.268.75-.7.75H151v3.7h3.7a2.141,2.141,0,0,0,1.662-.536,2.691,2.691,0,0,0,.59-1.715l.75-10.452a27.129,27.129,0,0,0,.054-3.7h.054l.161.643c.107.429.322.911.536,1.554.214.59.429,1.126.59,1.5l3.859,8.683h3.484L170.3,79.88a37.389,37.389,0,0,0,1.286-3.645h.054l-.054.59v1.5a15.068,15.068,0,0,0,.054,1.608l.8,10.452a2.691,2.691,0,0,0,.59,1.715,2.219,2.219,0,0,0,1.608.536h3.377v-3.7h-.75C176.834,88.885,176.62,88.617,176.566,88.134Z" transform="translate(-70.067 -62.836)"/><path class="c" d="M88.363,69h-2.2a4.11,4.11,0,0,0-1.822.322,3.222,3.222,0,0,0-1.233,1.394l-3.055,5.145c-.536.911-1.018,1.822-1.394,2.626h-.107l-1.394-2.626-3.109-5.145a4.078,4.078,0,0,0-1.233-1.394A4.109,4.109,0,0,0,71,69H68.8v3.7h.75a1.3,1.3,0,0,1,.75.161.052.052,0,0,1,.054.054,3.037,3.037,0,0,1,.536.59l5.521,8.79V92.583H80.7V82.292l5.521-8.79a2.362,2.362,0,0,1,.59-.643,1.42,1.42,0,0,1,.75-.161h.75V69Z" transform="translate(-31.925 -62.836)"/><path class="c" d="M14.471,80.248v-.054a5.252,5.252,0,0,0,1.983-1.93,5.707,5.707,0,0,0,.8-3.109,5.385,5.385,0,0,0-1.983-4.449,8.032,8.032,0,0,0-5.2-1.608H0v3.7H2.144v17.58a2.2,2.2,0,0,0,.536,1.715A2.274,2.274,0,0,0,4.4,92.63h5.789a9.622,9.622,0,0,0,5.789-1.715,6.083,6.083,0,0,0,2.3-5.092,6.377,6.377,0,0,0-.965-3.43A4.557,4.557,0,0,0,14.471,80.248Zm-8.04-7.5h3.645a2.87,2.87,0,0,1,2.144.8,3.066,3.066,0,0,1,.75,2.144,3.408,3.408,0,0,1-.75,2.2,2.528,2.528,0,0,1-2.09.858h-3.7Zm6.485,15.222a3.11,3.11,0,0,1-2.412.965H7.182c-.482,0-.7-.268-.7-.75V82.124h4.073a3.11,3.11,0,0,1,2.412.965,3.454,3.454,0,0,1,.911,2.412A4.088,4.088,0,0,1,12.917,87.966Z" transform="translate(0 -62.883)"/><path class="c" d="M117.36,68.3A11.9,11.9,0,0,0,105.3,80.306a12.218,12.218,0,0,0,3.484,8.79,12.164,12.164,0,0,0,17.151,0,12.13,12.13,0,0,0,3.484-8.79,11.6,11.6,0,0,0-3.484-8.522A11.436,11.436,0,0,0,117.36,68.3Zm5.413,17.9a7.01,7.01,0,0,1-5.413,2.412,7.089,7.089,0,0,1-5.413-2.412,8.455,8.455,0,0,1-2.2-5.9,7.807,7.807,0,0,1,2.2-5.628,7.094,7.094,0,0,1,5.413-2.3,7.175,7.175,0,0,1,5.413,2.3,7.987,7.987,0,0,1,2.2,5.628A8.549,8.549,0,0,1,122.773,86.2Z" transform="translate(-48.861 -62.511)"/><path class="c" d="M54.631,88.134l-.054-.107L47.771,69h-4.5L36.354,88.134a.988.988,0,0,1-1.018.75H34.8v3.7h2.573a3.1,3.1,0,0,0,1.769-.375,3.027,3.027,0,0,0,.965-1.5l1.447-4.127h7.933l1.447,4.127a2.791,2.791,0,0,0,.965,1.5,3.1,3.1,0,0,0,1.769.375h2.519v-3.7H55.65A1.029,1.029,0,0,1,54.631,88.134Zm-9.165-5.2H42.518l2.037-5.9c.268-.858.59-2.037.911-3.537h.107l.911,3.537,1.983,5.9Z" transform="translate(-16.148 -62.836)"/><path class="c" d="M228.594,63.289a2.894,2.894,0,1,0-2.894-2.894A2.882,2.882,0,0,0,228.594,63.289Zm0-5.306a2.412,2.412,0,1,1-2.412,2.412A2.4,2.4,0,0,1,228.594,57.982Z" transform="translate(-104.729 -57.5)"/><path class="c" d="M229.222,61.808h.643c.054,0,.054,0,.107.054a.052.052,0,0,1,.054.054l.214.214c.054.107.161.214.268.375l.375.59h.482l-.482-.8a2.332,2.332,0,0,0-.322-.375.74.74,0,0,0-.214-.161.872.872,0,0,0,.59-.268.952.952,0,0,0,.214-.536,1.01,1.01,0,0,0-.107-.429.549.549,0,0,0-.322-.268,1.667,1.667,0,0,0-.59-.054H228.9v2.894h.375V61.808Zm0-1.286h.911a1.07,1.07,0,0,1,.482.107.463.463,0,0,1,.161.322.483.483,0,0,1-.054.268c-.054.054-.107.161-.214.161a.921.921,0,0,1-.429.054h-.8v-.911Z" transform="translate(-106.214 -58.753)"/></g><g transform="translate(24.065 64.467)"><path class="d" d="M79.515,120.4H77.8v.536h.322v2.573a.246.246,0,0,0,.322.322h1.072a1.985,1.985,0,0,0,.965-.429,1.956,1.956,0,0,0,0-2.573A1.985,1.985,0,0,0,79.515,120.4ZM80,123.026a1.036,1.036,0,0,1-.482.268.8.8,0,0,1-.375.054h-.322a.115.115,0,0,1-.107-.107V120.99h.429a.912.912,0,0,1,.375.054,2.173,2.173,0,0,1,.482.268,1.132,1.132,0,0,1,.322.858A2.047,2.047,0,0,1,80,123.026Z" transform="translate(-60.166 -120.346)"/><path class="d" d="M177.766,120.507a.4.4,0,0,0-.054.268v1.554a1.846,1.846,0,0,0,.054.482h0l-.054-.054c0-.054-.054-.107-.107-.214s-.107-.161-.107-.214l-1.286-1.93h-.59v2.787a.115.115,0,0,1-.107.107H175.3v.536h.59a.246.246,0,0,0,.322-.322v-1.554a1.845,1.845,0,0,0-.054-.482h0l.054.054c0,.054.054.107.107.214s.107.161.107.214l1.286,1.93h.59V121.1a.115.115,0,0,1,.107-.107h.214v-.536h-.59A.213.213,0,0,0,177.766,120.507Z" transform="translate(-105.408 -120.346)"/><path class="d" d="M186.387,122.919a.412.412,0,0,1-.161.107.74.74,0,0,1-.214.161.409.409,0,0,1-.268.107.8.8,0,0,1-.375.054.964.964,0,0,1-.8-.375,1.217,1.217,0,0,1-.322-.858,1.132,1.132,0,0,1,.322-.858,1.091,1.091,0,0,1,.8-.322,1.565,1.565,0,0,1,.482.107.274.274,0,0,1,.214.268v.214h.59v-.375a.487.487,0,0,0-.161-.375.864.864,0,0,0-.375-.214,1.261,1.261,0,0,0-.429-.107,1.047,1.047,0,0,0-.375-.054,1.651,1.651,0,0,0-1.715,1.715,1.738,1.738,0,0,0,.482,1.286,1.775,1.775,0,0,0,1.286.536,1.484,1.484,0,0,0,.482-.054,2.611,2.611,0,0,0,.375-.161,1.17,1.17,0,0,0,.268-.161q.161-.08.161-.161l.054-.054-.322-.429Z" transform="translate(-109.26 -120.346)"/><rect class="d" width="0.59" height="0.643" transform="translate(22.029 2.894)"/><path class="d" d="M73.376,123.187a.115.115,0,0,1-.107.107h-.75a.115.115,0,0,1-.107-.107v-2.466a.246.246,0,0,0-.322-.322H71.5v.536h.214a.115.115,0,0,1,.107.107v2.466a.246.246,0,0,0,.322.322h1.5a.246.246,0,0,0,.322-.322v-.536h-.59Z" transform="translate(-57.243 -120.346)"/><path class="d" d="M158.919,123.28l-.322-.643q-.08-.161-.161-.161h0c.054,0,.107-.054.161-.054l.161-.161a1.171,1.171,0,0,0,.161-.268.912.912,0,0,0,.054-.375,1.06,1.06,0,0,0-.268-.75,1.162,1.162,0,0,0-.75-.268H156.4v.536h.322v2.894h.643v-1.286h.482a.115.115,0,0,1,.107.107l.429.858a.739.739,0,0,0,.161.214c.054.054.161.054.322.054h.322v-.536h-.054C159.08,123.387,158.973,123.387,158.919,123.28Zm-.7-1.286a.487.487,0,0,1-.375.161h-.482v-1.072h.482a.487.487,0,0,1,.375.161.452.452,0,0,1,.107.375A.355.355,0,0,1,158.222,121.994Z" transform="translate(-96.638 -120.439)"/><path class="d" d="M48.813,120.454a.279.279,0,0,0-.107.214l-.482,2.037a.912.912,0,0,0-.054.375h0l-.054-.375-.59-2.3H46.99l-.643,2.3a.912.912,0,0,0-.054.375h0l-.054-.375-.482-2.037c0-.107-.054-.161-.161-.214a.4.4,0,0,0-.268-.054H44.9v.536h.054c.107,0,.161.054.161.107l.7,2.787h.75l.536-1.93c.054-.161.054-.268.107-.429h0l.107.429.536,1.93h.75l.7-2.787c0-.054.054-.107.161-.107h.107V120.4h-.429A1.9,1.9,0,0,0,48.813,120.454Z" transform="translate(-44.9 -120.346)"/><path class="d" d="M66.719,123.28l-.322-.643q-.08-.161-.161-.161h0c.054,0,.107-.054.161-.054l.161-.161a1.172,1.172,0,0,0,.161-.268.912.912,0,0,0,.054-.375,1.06,1.06,0,0,0-.268-.75,1.162,1.162,0,0,0-.75-.268H64.2v.536h.322v2.894h.643v-1.286h.482a.115.115,0,0,1,.107.107l.429.858a.74.74,0,0,0,.161.214c.054.054.161.054.322.054h.322v-.536h-.054C66.826,123.387,66.773,123.387,66.719,123.28Zm-.7-1.286a.487.487,0,0,1-.375.161h-.482v-1.072h.482a.487.487,0,0,1,.375.161.452.452,0,0,1,.107.375A.994.994,0,0,1,66.022,121.994Z" transform="translate(-53.856 -120.439)"/><path class="d" d="M57.215,120.3a1.651,1.651,0,0,0-1.715,1.715,1.921,1.921,0,0,0,.482,1.286,1.745,1.745,0,0,0,1.233.536,1.552,1.552,0,0,0,1.233-.536,1.738,1.738,0,0,0,.482-1.286,1.651,1.651,0,0,0-1.715-1.715Zm.8,2.626a1.14,1.14,0,0,1-.8.375.964.964,0,0,1-.8-.375,1.217,1.217,0,0,1-.322-.858,1.126,1.126,0,1,1,2.251,0A1.217,1.217,0,0,1,58.019,122.926Z" transform="translate(-49.819 -120.3)"/><path class="d" d="M193.583,123.073v.214a.115.115,0,0,1-.107.107h-.8a.115.115,0,0,1-.107-.107v-.8h1.126v-.536h-1.126v-.911h.75a.115.115,0,0,1,.107.107v.214h.59v-.536a.284.284,0,0,0-.322-.322H191.6v.536h.322v2.573a.246.246,0,0,0,.322.322H193.8a.246.246,0,0,0,.322-.322v-.536h-.536Z" transform="translate(-112.972 -120.393)"/><path class="d" d="M94.176,122.122c-.107-.054-.214-.161-.322-.214l-.322-.161-.322-.161a.74.74,0,0,1-.214-.161.278.278,0,0,1-.107-.214.3.3,0,0,1,.161-.268.775.775,0,0,1,.375-.107.68.68,0,0,1,.322.054c.107.054.161.107.161.214v.161h.59v-.322a.487.487,0,0,0-.161-.375,1.1,1.1,0,0,0-.8-.268,1.316,1.316,0,0,0-.8.268.864.864,0,0,0-.322.7.775.775,0,0,0,.107.375,1.17,1.17,0,0,0,.214.268c.107.054.214.161.322.214l.322.161.322.161a.74.74,0,0,1,.214.161.406.406,0,0,1,.107.214.463.463,0,0,1-.161.322.775.775,0,0,1-.375.107.483.483,0,0,1-.268-.054c-.107-.054-.161-.054-.214-.107s-.107-.054-.161-.107-.107-.054-.107-.107l-.054-.054-.375.429.054.054c.054.054.107.054.161.107s.161.107.214.161a.762.762,0,0,0,.322.107,1.045,1.045,0,0,0,.429.054,1.206,1.206,0,0,0,.8-.268.943.943,0,0,0,.322-.7,1.262,1.262,0,0,0-.107-.429C94.337,122.337,94.283,122.23,94.176,122.122Z" transform="translate(-66.895 -120.3)"/><path class="d" d="M170.283,123.187a.115.115,0,0,1-.107.107h-.8a.115.115,0,0,1-.107-.107v-.8h1.126v-.536h-1.126v-.911h.75a.115.115,0,0,1,.107.107v.214h.59v-.536a.284.284,0,0,0-.322-.322H168.3v.536h.322v2.573a.246.246,0,0,0,.322.322H170.5a.246.246,0,0,0,.322-.322v-.536h-.536Z" transform="translate(-102.16 -120.346)"/><path class="d" d="M137.758,121.043l.107-.107h.268V120.4h-.375a.4.4,0,0,0-.268.054.74.74,0,0,0-.161.214l-.322.59a3.183,3.183,0,0,0-.214.429h0l-.214-.429-.322-.59a.74.74,0,0,0-.161-.214.4.4,0,0,0-.268-.054h-.375v.536h.268l.107.107.643,1.018L135.4,123.83h.7l.536-.911a3.183,3.183,0,0,0,.214-.429h0l.214.429.536.911h.7l-1.072-1.769Z" transform="translate(-86.894 -120.346)"/><path class="d" d="M144.108,120.4H142.5v.536h.322v2.894h.643v-1.179h.643a1.126,1.126,0,1,0,0-2.251Zm.322,1.554a.487.487,0,0,1-.375.161h-.482v-1.179h.536a.487.487,0,0,1,.375.161.609.609,0,0,1,.161.429A3.155,3.155,0,0,0,144.43,121.954Z" transform="translate(-90.188 -120.346)"/><path class="d" d="M163.7,120.936h.375v2.358H163.7v.536h1.286v-.536h-.322v-2.358h.322V120.4H163.7Z" transform="translate(-100.026 -120.346)"/><path class="d" d="M100.415,120.3h0a1.651,1.651,0,0,0-1.715,1.715,1.921,1.921,0,0,0,.482,1.286,1.745,1.745,0,0,0,1.233.536h0a1.552,1.552,0,0,0,1.233-.536,1.738,1.738,0,0,0,.482-1.286,1.651,1.651,0,0,0-1.715-1.715Zm.75,2.626a1.14,1.14,0,0,1-.8.375h0a.964.964,0,0,1-.8-.375,1.217,1.217,0,0,1-.322-.858,1.1,1.1,0,0,1,1.126-1.126h0a1.1,1.1,0,0,1,1.126,1.126A1.217,1.217,0,0,1,101.166,122.926Z" transform="translate(-69.864 -120.3)"/><path class="d" d="M151.483,123.187a.115.115,0,0,1-.107.107h-.8a.115.115,0,0,1-.107-.107v-.8h1.126v-.536h-1.126v-.911h.75a.115.115,0,0,1,.107.107v.214h.59v-.536a.284.284,0,0,0-.322-.322H149.5v.536h.322v2.573a.246.246,0,0,0,.322.322H151.7a.246.246,0,0,0,.322-.322v-.536h-.59v.214Z" transform="translate(-93.437 -120.346)"/><path class="d" d="M130.583,123.187a.115.115,0,0,1-.107.107h-.8a.115.115,0,0,1-.107-.107v-.8h1.126v-.536h-1.126v-.911h.75a.115.115,0,0,1,.107.107v.214h.59v-.536a.284.284,0,0,0-.322-.322H128.6v.536h.322v2.573a.246.246,0,0,0,.322.322H130.8a.246.246,0,0,0,.322-.322v-.536h-.59v.214Z" transform="translate(-83.739 -120.346)"/><path class="d" d="M117.576,123.187a.115.115,0,0,1-.107.107h-.75a.115.115,0,0,1-.107-.107v-2.466a.246.246,0,0,0-.322-.322h-.59v.536h.214a.115.115,0,0,1,.107.107v2.466a.246.246,0,0,0,.322.322h1.5a.246.246,0,0,0,.322-.322v-.536h-.59v.214Z" transform="translate(-77.753 -120.346)"/><path class="d" d="M109.666,120.507a.4.4,0,0,0-.054.268v1.876a.621.621,0,0,1-.214.536.819.819,0,0,1-.536.214.688.688,0,0,1-.536-.214.819.819,0,0,1-.214-.536v-1.93a.246.246,0,0,0-.322-.322h-.59v.536h.214a.115.115,0,0,1,.107.107V122.6a1.1,1.1,0,0,0,.375.911,1.541,1.541,0,0,0,.965.375,1.216,1.216,0,0,0,.965-.375,1.1,1.1,0,0,0,.375-.911v-1.554a.115.115,0,0,1,.107-.107h.214V120.4h-.643A.406.406,0,0,0,109.666,120.507Z" transform="translate(-73.808 -120.346)"/><rect class="d" width="0.59" height="0.643" transform="translate(41.646 2.894)"/></g></g></svg>