<svg xmlns="http://www.w3.org/2000/svg" viewBox="0 0 58.867 57.689"><defs><style>.a{fill:#0e301f;}.b{fill:#a9cf43;}</style></defs><g transform="translate(-72.995)"><g transform="translate(72.995)"><rect class="a" width="58.867" height="57.689" rx="13" transform="translate(0)"/><g transform="translate(13.898 13.946)"><g transform="translate(0 0)"><path class="b" d="M24.734,44.754a3.038,3.038,0,0,0-2.2-1.011,3.142,3.142,0,0,0-2.23,1L18.241,46.8c-.17-.091-.339-.176-.5-.261-.235-.117-.456-.228-.645-.346a22.39,22.39,0,0,1-5.365-4.889,13.21,13.21,0,0,1-1.76-2.777c.535-.489,1.03-1,1.512-1.486.183-.183.365-.372.548-.554a2.991,2.991,0,0,0,0-4.511l-1.78-1.78c-.2-.2-.411-.411-.606-.619-.391-.4-.8-.821-1.226-1.213a3.086,3.086,0,0,0-2.184-.958,3.193,3.193,0,0,0-2.217.958L4,28.377,1.786,30.613A4.77,4.77,0,0,0,.371,33.645a11.428,11.428,0,0,0,.834,4.837A28.07,28.07,0,0,0,6.193,46.8a30.679,30.679,0,0,0,10.216,8,15.917,15.917,0,0,0,5.737,1.695c.137.007.28.013.411.013a4.912,4.912,0,0,0,3.762-1.617c.007-.013.02-.02.026-.033a14.813,14.813,0,0,1,1.141-1.18c.28-.267.567-.548.848-.841a3.252,3.252,0,0,0,.984-2.256,3.133,3.133,0,0,0-1-2.236Zm2.334,6.865c-.007,0-.007.007,0,0-.254.274-.515.522-.8.8a17.142,17.142,0,0,0-1.258,1.3,3.143,3.143,0,0,1-2.451,1.037c-.1,0-.2,0-.3-.007a14.14,14.14,0,0,1-5.085-1.526,28.959,28.959,0,0,1-9.622-7.536,26.467,26.467,0,0,1-4.694-7.817,9.308,9.308,0,0,1-.73-4.081,2.993,2.993,0,0,1,.9-1.936l2.223-2.223a1.482,1.482,0,0,1,.991-.463,1.394,1.394,0,0,1,.952.456l.02.02c.4.372.776.756,1.173,1.167.2.209.411.417.619.632l1.78,1.78a1.244,1.244,0,0,1,0,2.021c-.189.189-.372.378-.561.561-.548.561-1.069,1.082-1.636,1.591-.013.013-.026.02-.033.033a1.33,1.33,0,0,0-.339,1.48l.02.059A14.288,14.288,0,0,0,10.346,42.4l.007.007a23.928,23.928,0,0,0,5.789,5.268,8.9,8.9,0,0,0,.8.437c.235.117.456.228.645.346.026.013.052.033.078.046a1.413,1.413,0,0,0,.645.163,1.394,1.394,0,0,0,.991-.45l2.23-2.23a1.475,1.475,0,0,1,.984-.489,1.328,1.328,0,0,1,.939.476l.013.013,3.592,3.592A1.289,1.289,0,0,1,27.068,51.619Z" transform="translate(-0.344 -25.619)"/><path class="b" d="M245.668,87.671A8.39,8.39,0,0,1,252.5,94.5a.875.875,0,0,0,.867.73,1.163,1.163,0,0,0,.15-.013.881.881,0,0,0,.724-1.017,10.145,10.145,0,0,0-8.266-8.266.885.885,0,0,0-1.017.717A.871.871,0,0,0,245.668,87.671Z" transform="translate(-228.998 -80.324)"/><path class="b" d="M263.41,13.626A16.705,16.705,0,0,0,249.8.014a.879.879,0,1,0-.287,1.734,14.921,14.921,0,0,1,12.165,12.165.875.875,0,0,0,.867.73,1.161,1.161,0,0,0,.15-.013A.864.864,0,0,0,263.41,13.626Z" transform="translate(-232.579 0)"/></g></g></g></g></svg>