<svg xmlns="http://www.w3.org/2000/svg" viewBox="0 0 58.867 57.689"><defs><style>.a{fill:#0e301f;}.b{fill:#a9cf43;}</style></defs><g transform="translate(0)"><rect class="a" width="58.867" height="57.689" rx="13"/><g transform="translate(13.718 12.677)"><path class="b" d="M31.451,15.32a15.465,15.465,0,0,1-22.9,13.414L0,31.451l2.787-8.22A15.159,15.159,0,0,1,.571,15.32a15.44,15.44,0,0,1,30.88,0ZM16.011,2.44A12.945,12.945,0,0,0,3.03,15.32,12.745,12.745,0,0,0,5.5,22.872L3.881,27.656,8.87,26.07A12.994,12.994,0,0,0,28.993,15.321,12.946,12.946,0,0,0,16.011,2.44Zm7.8,16.409c-.1-.156-.347-.251-.725-.438s-2.24-1.1-2.586-1.221-.6-.188-.852.188-.977,1.221-1.2,1.472-.441.283-.82.095a10.359,10.359,0,0,1-3.043-1.864,11.322,11.322,0,0,1-2.105-2.6c-.221-.376-.023-.579.166-.766.171-.168.379-.439.568-.658a2.517,2.517,0,0,0,.378-.627.684.684,0,0,0-.031-.658c-.094-.188-.852-2.036-1.167-2.788s-.63-.626-.851-.626-.473-.031-.725-.031A1.4,1.4,0,0,0,9.8,8.8,4.2,4.2,0,0,0,8.48,11.928a7.266,7.266,0,0,0,1.545,3.884c.189.25,2.617,4.166,6.465,5.669s3.848,1,4.542.939a3.828,3.828,0,0,0,2.555-1.785A3.131,3.131,0,0,0,23.808,18.849Z" transform="translate(0 0)"/></g></g></svg>