<svg xmlns="http://www.w3.org/2000/svg" viewBox="0 0 574.15 426.507"><defs><style>.a{fill:#a8d135;opacity:0.148;}</style></defs><path class="a" d="M421.9,124.245c-36.808-1.4-71.864-14.515-105.339-28.854s-57.281-16.1-102.558-37.817c-31.137-11.027-49.536-5.583-68.15,8.085-17.909,13.147-72.119,74.616-6.29,133.078,19.035,34.33,50.068,9.353-15.043,110.171-9.668,15.719-20.9,30.736-28.368,47.452s-10.919,35.91-4.385,52.984c6.472,16.936,21.9,29.631,38.616,38.57,33.947,18.159,73.934,23.353,112.954,26.3,86.349,6.511,173.153,3.694,259.73.866,32.042-1.041,64.22-2.1,95.738-7.565,17.505-3.036,35.574-7.853,48.285-19.482,16.129-14.759,20.127-39.749,9.316-58.259-18.131-31.043-68.247-38.752-80.935-72.065-6.973-18.341.188-38.764,10.328-55.769,21.748-36.488,58.2-68.5,60.114-110.2,1.32-28.64-16.2-57.325-43.3-70.88-28.4-14.207-56.033-13.181-88.721,11.09C471.881,119.539,454.393,125.493,421.9,124.245Z" transform="translate(-88.316 -51.681)"/></svg>